<svg width="155" height="27" viewBox="0 0 155 27" fill="none" xmlns="http://www.w3.org/2000/svg">
<path d="M25.4827 22.0683L25.4846 22.0705L21.265 25.7605C20.3998 26.5359 19.2811 26.9751 18.115 26.9967L18.1052 26.9969H3.64493C3.10964 27.0193 2.57623 26.9195 2.08598 26.705C1.58706 26.4868 1.14629 26.1559 0.799187 25.7384C0.45206 25.321 0.208343 24.829 0.0872184 24.3018C-0.0316549 23.7836 -0.0290753 23.2446 0.0953242 22.7274L1.20863 17.0776C1.30767 16.5859 1.56942 16.1407 1.95253 15.813L2.00712 15.7663C1.88861 15.588 1.80192 15.3905 1.75109 15.1824C1.68367 14.9063 1.68131 14.6191 1.74342 14.3428L2.85894 8.6825L2.86066 8.67444C3.07776 7.65874 3.62458 6.74174 4.41745 6.0638L8.28079 2.68532C8.45955 2.48182 8.65579 2.29225 8.86807 2.11895C9.71374 1.42854 10.7661 1.03538 11.8608 1.00058L11.879 1L26.3568 1.0413C26.8915 1.01915 27.4242 1.11907 27.914 1.33327C28.4129 1.55152 28.8537 1.88246 29.2008 2.29986C29.5478 2.71718 29.7916 3.20921 29.9127 3.73666C30.0318 4.25504 30.029 4.79354 29.9048 5.31047L27.1394 19.3801L27.1354 19.3972C26.8925 20.4427 26.312 21.3804 25.4827 22.0683Z" fill="#565C73"/>
<path d="M25.4874 2.04103C25.86 2.02205 26.2318 2.09139 26.5732 2.24342C26.9145 2.39544 27.2159 2.62593 27.4534 2.91657C27.6907 3.20721 27.8575 3.54987 27.9403 3.91721C28.0231 4.28454 28.0197 4.66638 27.9304 5.03214L25.2329 19.0059C25.0434 19.8362 24.5872 20.5798 23.9354 21.1209C23.2837 21.6619 22.4728 21.97 21.6295 21.997H7.51627C7.14361 22.0158 6.77171 21.9464 6.43022 21.7944C6.08874 21.6423 5.78713 21.412 5.54939 21.1215C5.31166 20.831 5.14435 20.4885 5.06082 20.1213C4.97729 19.754 4.97984 19.372 5.06824 19.0059L6.1574 13.3527C6.22127 13.0767 6.37368 12.8299 6.5909 12.6505C6.80813 12.4711 7.07799 12.3692 7.35853 12.3608C9.93382 12.4533 12.4073 12.6486 14.7129 13.4863L15.2218 16.7189C15.2343 16.797 15.2751 16.8676 15.3362 16.9169C15.3973 16.9663 15.4745 16.9911 15.5527 16.9862C15.6424 16.9846 15.7303 16.9591 15.8071 16.9122C15.884 16.8652 15.9472 16.7985 15.9904 16.7189L17.7309 13.4863L21.2122 12.3762C21.2964 12.349 21.3722 12.3001 21.432 12.2343C21.4918 12.1685 21.5335 12.0881 21.5532 12.0011C21.5731 11.9241 21.5637 11.8423 21.527 11.772C21.4903 11.7016 21.4288 11.6477 21.3547 11.6208L18.301 10.5158L17.792 7.28324C17.7796 7.20473 17.739 7.13356 17.678 7.08337C17.617 7.03311 17.5399 7.00731 17.4612 7.01085C17.3709 7.01292 17.2827 7.03924 17.2058 7.08711C17.1289 7.13498 17.0659 7.20266 17.0235 7.28324L15.2829 10.5158C12.7589 11.2469 10.1472 11.624 7.52138 11.6362C7.39533 11.6471 7.26857 11.6274 7.15146 11.5791C7.03436 11.5309 6.93028 11.4552 6.8478 11.3584C6.76532 11.2616 6.7068 11.1463 6.67703 11.0221C6.64725 10.898 6.64706 10.7685 6.67651 10.6442L7.76569 4.991C7.9541 4.16114 8.40931 3.41765 9.06027 2.87655C9.71123 2.33545 10.5213 2.02728 11.364 2L25.4874 2.04103Z" fill="#B3B8C6"/>
<path d="M113.912 21C111.371 21 109.568 19.8739 109 17.7492L112.323 16.1133C112.558 16.9844 113.247 17.3881 114.498 17.3881C115.471 17.3881 116.257 17.0694 116.367 16.3895C116.505 15.5396 115.732 15.4122 114.552 15.221C112.598 14.9023 109.795 14.0736 110.35 10.653C110.777 8.01842 113.309 6 116.286 6C118.629 6 120.431 7.12606 121 9.25071L117.677 10.8867C117.414 10.1855 116.792 9.61187 115.541 9.61187C114.668 9.61187 114.143 9.90933 114.047 10.5042C113.916 11.3116 114.748 11.5666 116.023 11.779C117.957 12.0978 120.605 12.9051 120.047 16.347C119.62 18.9815 116.89 21 113.912 21Z" fill="#565C73"/>
<path d="M135 19.9394H138.896L141.96 10.303L142.736 18.2828C142.841 19.4343 143.776 20 144.916 20C146.077 20 147.156 19.4141 147.724 18.202L151.345 10.3232L150.751 19.9394H154.627L154.998 8.54544C155.045 6.8889 154.084 6 152.447 6C150.954 6 149.572 6.66665 148.908 8.18184L145.744 15.3535L145.126 8.12119C145.002 6.60607 143.887 6 142.436 6C140.758 6 139.442 6.86871 138.885 8.48486L135 19.9394Z" fill="#565C73"/>
<path d="M122.166 14.54C121.459 18.6157 122.98 21 127.298 21C131.595 21 133.984 18.6157 134.691 14.54L136 7H132.232L130.941 14.4381C130.574 16.5575 129.607 17.4338 127.916 17.4338C126.246 17.4338 125.584 16.5575 125.952 14.4381L127.242 7H123.475L122.166 14.54Z" fill="#565C73"/>
<path fill-rule="evenodd" clip-rule="evenodd" d="M96 21L99.9651 20.9793L100.575 17.5778H102.373C106.57 17.5778 109.304 15.5867 109.906 12.2267C110.489 8.97036 108.338 7 104.055 7H98.5098L96 21ZM101.839 10.5259H103.53C105.243 10.5259 106.034 11.1274 105.838 12.2267C105.626 13.4089 104.676 14.0519 102.898 14.0519H101.207L101.839 10.5259Z" fill="#565C73"/>
<path d="M91.3272 7H95L92.6728 21H89L91.3272 7Z" fill="#565C73"/>
<path fill-rule="evenodd" clip-rule="evenodd" d="M74.1202 13.5C73.3966 17.7827 76.004 21 80.2329 21C84.4618 21 88.1562 17.7827 88.8798 13.5C89.6034 9.21736 86.996 6 82.7671 6C78.5382 6 74.8438 9.21736 74.1202 13.5ZM84.9412 13.5C84.581 15.6307 82.8112 17.2713 80.8626 17.2713C78.914 17.2713 77.6987 15.6307 78.0588 13.5C78.419 11.3694 80.1882 9.7287 82.1368 9.7287C84.0854 9.7287 85.3013 11.3694 84.9412 13.5Z" fill="#565C73"/>
<path d="M66.1915 21C62.0285 21 59.4093 17.6975 60.1144 13.5C60.8194 9.30255 64.5067 6 68.711 6C71.1842 6 73.3946 7.321 74 9.7287L70.5872 11.5185C70.1924 10.4318 69.5309 9.7074 67.9234 9.7074C65.9655 9.7074 64.3991 11.3054 64.0194 13.5639C63.6222 15.929 64.687 17.4418 66.7892 17.4418C67.9021 17.4418 68.6209 17.3352 69.3113 16.7813L69.6308 14.7996L66.0633 13.1447H73.5962L73.4899 13.8196H73.4983L73.3804 14.5198L73.3733 14.566L73.3727 14.5663L72.7821 18.081C71.4244 19.7855 68.9944 21 66.1915 21Z" fill="#565C73"/>
<path fill-rule="evenodd" clip-rule="evenodd" d="M45.1202 13.5C44.3966 17.7827 47.004 21 51.2329 21C55.4618 21 59.1563 17.7827 59.8798 13.5C60.6034 9.21736 57.996 6 53.7671 6C49.5382 6 45.8437 9.21736 45.1202 13.5ZM55.9412 13.5C55.5812 15.6307 53.8115 17.2713 51.8629 17.2713C49.9143 17.2713 48.6989 15.6307 49.0588 13.5C49.4188 11.3694 51.1886 9.7287 53.1372 9.7287C55.0858 9.7287 56.3011 11.3694 55.9412 13.5Z" fill="#565C73"/>
<path d="M40.703 7L38.9112 17.4741H45L44.3969 21H37.7973C35.468 21 34.741 19.7556 35.0781 17.7852L36.923 7H40.703Z" fill="#565C73"/>
</svg>
