<svg width="162" height="26" viewBox="0 0 162 26" fill="none" xmlns="http://www.w3.org/2000/svg">
<g clip-path="url(#clip0_33172_528)">
<path d="M25.6622 20.8C29.9163 20.8 33.3649 17.3078 33.3649 13C33.3649 8.69219 29.9163 5.2 25.6622 5.2C21.6697 5.2 18.3867 8.27586 17.998 12.2151C16.4243 11.4943 14.7241 11.0636 12.983 10.9502C13.9537 4.74442 19.2608 0 25.6622 0C32.7523 0 38.5 5.8203 38.5 13C38.5 19.9178 33.1639 25.5736 26.4324 25.977V26H17.9719V24.8654C17.9719 23.3916 17.3717 21.9584 16.2716 20.8868C15.1683 19.8123 13.6529 19.1927 12.054 19.1927C10.4552 19.1927 8.93977 19.8123 7.83649 20.8868C6.73638 21.9584 6.13612 23.3916 6.13612 24.8654V26H0.5V24.8377C0.5 21.7991 1.74529 18.9089 3.92347 16.7959C6.03196 14.7504 8.8476 13.5916 11.7787 13.5232C11.8704 13.5211 11.9622 13.52 12.054 13.52C12.1252 13.52 12.1962 13.5206 12.2673 13.5219C15.2207 13.5753 18.0612 14.736 20.1846 16.7959C21.3609 17.9369 22.2651 19.3047 22.848 20.8H25.6622Z" fill="#565C73"/>
<path d="M14.4749 22.8278C15.1312 23.3578 15.5 24.0767 15.5 24.8263V26H8.5V24.8263C8.5 24.0767 8.86878 23.3578 9.5251 22.8278C10.1815 22.2978 11.0718 22 12 22C12.9282 22 13.8185 22.2978 14.4749 22.8278Z" fill="#B3B8C6"/>
<path d="M28.8636 11.2727C27.9599 11.2727 27.2273 10.5401 27.2273 9.63637V9.22725C27.2273 8.5495 26.6778 8 26 8C25.3222 8 24.7728 8.54944 24.7728 9.22725V9.63637C24.7728 10.5401 24.0401 11.2727 23.1364 11.2727H22.7272C22.0495 11.2727 21.5 11.8222 21.5 12.5C21.5 13.1778 22.0495 13.7273 22.7272 13.7273H23.1364C24.0401 13.7273 24.7728 14.4599 24.7728 15.3636V15.7728C24.7728 16.4506 25.3222 17 26 17C26.6778 17 27.2273 16.4506 27.2273 15.7728V15.3636C27.2273 14.4599 27.9599 13.7273 28.8636 13.7273H29.2727C29.9506 13.7273 30.5 13.1778 30.5 12.5C30.5 11.8222 29.9506 11.2727 29.2727 11.2727H28.8636Z" fill="#B3B8C6"/>
<path d="M7.50006 2.00003C7.50006 3.10458 8.3955 3.99999 9.50006 3.99999H10C10.8284 3.99999 11.5 4.67157 11.5 5.49999C11.5 6.32844 10.8284 7 10 7H9.50006C8.3955 7 7.50006 7.89544 7.50006 8.99994V9.5C7.50006 10.3284 6.8285 11 6.00007 11C5.17164 11 4.50007 10.3284 4.50007 9.5V9C4.50007 7.89544 3.60464 7 2.50007 7H2C1.17158 7 0.5 6.32844 0.5 5.49999C0.5 4.67157 1.17158 3.99999 2 3.99999H2.50007C3.60464 3.99999 4.50007 3.10457 4.50007 2V1.5C4.50007 0.671575 5.17164 0 6.00007 0C6.8285 0 7.50006 0.671575 7.50006 1.5V2.00003Z" fill="#B3B8C6"/>
<path d="M154.796 9C158.643 9 160.5 11.7693 160.5 14.977V21H156.473V15.6923C156.473 14.2385 155.959 13.0385 154.483 13.0385C153.006 13.0385 152.514 14.2385 152.514 15.6923V21H148.487V15.6923C148.487 14.2385 147.995 13.0385 146.518 13.0385C145.042 13.0385 144.527 14.2385 144.527 15.6923V21H140.5V14.977C140.5 11.7693 142.357 9 146.205 9C148.308 9 149.829 9.85389 150.522 11.2616C151.261 9.85389 152.872 9 154.796 9Z" fill="#565C73"/>
<path d="M133.5 16.9223C134.824 16.9223 135.394 15.6874 135.394 14.2194V9H139.5V14.732C139.5 18.1573 137.538 21 133.5 21C129.462 21 127.5 18.1573 127.5 14.732V9H131.606V14.2194C131.606 15.6874 132.177 16.9223 133.5 16.9223Z" fill="#565C73"/>
<path d="M121.544 21C119.055 21 117.447 20.1203 116.5 18.406L119.363 16.7593C119.76 17.4812 120.355 17.8421 121.346 17.8421C122.161 17.8421 122.535 17.5488 122.535 17.1879C122.535 15.812 116.721 17.2105 116.721 12.8346C116.721 10.7143 118.483 9 121.478 9C124.099 9 125.531 10.3082 126.17 11.5714L123.306 13.2406C123.064 12.5639 122.315 12.1578 121.566 12.1578C120.993 12.1578 120.685 12.406 120.685 12.7444C120.685 14.1428 126.5 12.8571 126.5 17.0977C126.5 19.4661 124.231 21 121.544 21Z" fill="#565C73"/>
<path d="M107.427 26H103.5V15.0242C103.5 11.5329 106.009 9 109.5 9C112.903 9 115.5 11.7155 115.5 15.0242C115.5 18.6752 113.188 21.094 109.718 21.094C108.911 21.094 108.104 20.843 107.427 20.4551V26ZM109.5 17.2376C110.743 17.2376 111.573 16.2336 111.573 15.047C111.573 13.8376 110.743 12.8564 109.5 12.8564C108.256 12.8564 107.427 13.8376 107.427 15.047C107.427 16.2336 108.256 17.2376 109.5 17.2376Z" fill="#565C73"/>
<path d="M99.0003 7.77503C97.6342 7.77503 96.5 6.69181 96.5 5.38752C96.5 4.08323 97.6342 3 99.0003 3C100.366 3 101.5 4.08323 101.5 5.38752C101.5 6.69181 100.366 7.77503 99.0003 7.77503ZM96.9167 8.94672H101.083V20H96.9167V8.94672Z" fill="#565C73"/>
<path d="M89.5003 21C86.0964 21 83.5 18.2881 83.5 14.9887C83.5 11.7118 86.0964 9 89.5003 9C92.9035 9 95.5 11.7118 95.5 14.9887C95.5 18.2881 92.9035 21 89.5003 21ZM89.5003 17.1808C90.7436 17.1808 91.5729 16.1864 91.5729 15.0113C91.5729 13.8135 90.7436 12.8192 89.5003 12.8192C88.2564 12.8192 87.4272 13.8135 87.4272 15.0113C87.4272 16.1864 88.2564 17.1808 89.5003 17.1808Z" fill="#565C73"/>
<path d="M75.1731 26C72.4674 26 70.5041 24.7697 69.5 22.5777L72.7509 20.7882C73.0999 21.5487 73.755 22.3316 75.1075 22.3316C76.5257 22.3316 77.4636 21.4145 77.5729 19.804C77.0496 20.2737 76.2203 20.6316 74.9764 20.6316C71.9441 20.6316 69.5 18.2382 69.5 14.8829C69.5 11.6395 72.0965 9 75.5003 9C78.991 9 81.5 11.4829 81.5 14.9053V19.3342C81.5 23.3605 78.773 26 75.1731 26ZM75.4347 16.8513C76.6131 16.8513 77.5073 16.0237 77.5073 14.7935C77.5073 13.5855 76.6131 12.7803 75.4347 12.7803C74.2783 12.7803 73.3622 13.5855 73.3622 14.7935C73.3622 16.0237 74.2783 16.8513 75.4347 16.8513Z" fill="#565C73"/>
<path d="M62.5 21C59.0964 21 56.5 18.2881 56.5 14.9887C56.5 11.7118 59.0964 9 62.5 9C65.9035 9 68.5 11.7118 68.5 14.9887C68.5 18.2881 65.9035 21 62.5 21ZM62.5 17.1808C63.7437 17.1808 64.5728 16.1864 64.5728 15.0113C64.5728 13.8135 63.7437 12.8192 62.5 12.8192C61.2564 12.8192 60.4273 13.8135 60.4273 15.0113C60.4273 16.1864 61.2564 17.1808 62.5 17.1808Z" fill="#565C73"/>
<path d="M48.7132 5V16.2222H55.5V20H48.1439C45.5476 20 44.5 18.6667 44.5 16.5556V5H48.7132Z" fill="#565C73"/>
</g>
<defs>
<clipPath id="clip0_33172_528">
<rect width="161" height="26" fill="white" transform="translate(0.5)"/>
</clipPath>
</defs>
</svg>
