<svg width="154" height="27" viewBox="0 0 154 27" fill="none" xmlns="http://www.w3.org/2000/svg">
<path d="M26 27V1H12.5027L1.00001 12.9628L1 27H26Z" fill="#565C73"/>
<path fill-rule="evenodd" clip-rule="evenodd" d="M12.4 18.1183V26L7 25.9999V15.8817L14.8816 8H25V13.4H17.1184L12.4 18.1183Z" fill="#565C73"/>
<path fill-rule="evenodd" clip-rule="evenodd" d="M5.77778 15.6781V27L0 26.9999L6.99095e-06 13.2848L12.2849 1H26V6.77775H14.6781L5.77778 15.6781Z" fill="#B3B8C6"/>
<path fill-rule="evenodd" clip-rule="evenodd" d="M18.4615 21.6855V27H12V19.3914L17.1233 15H26V20.5385H19.7998L18.4615 21.6855Z" fill="#B3B8C6"/>
<path d="M90 10V22H93V10H90Z" fill="#565C73"/>
<path d="M90 5V9H94V5H90Z" fill="#565C73"/>
<path fill-rule="evenodd" clip-rule="evenodd" d="M103.432 22.4276C102.269 22.4276 101.337 22.1619 100.636 21.6303C100.144 21.2578 99.794 20.789 99.5846 20.2244V27H96V10.2345H99.5124V12.1535C99.7605 11.5954 100.167 11.1356 100.732 10.7738C101.512 10.258 102.476 10 103.623 10C104.722 10 105.67 10.258 106.467 10.7738C107.28 11.274 107.901 11.9853 108.331 12.9076C108.777 13.8299 109 14.9163 109 16.1669C109 17.4332 108.769 18.5352 108.307 19.4731C107.845 20.411 107.2 21.138 106.371 21.6538C105.543 22.1697 104.563 22.4276 103.432 22.4276ZM102.428 19.6138C103.273 19.6138 103.958 19.3168 104.484 18.7228C105.009 18.1287 105.272 17.2846 105.272 16.1904C105.272 15.0961 105.001 14.2598 104.46 13.6814C103.934 13.103 103.241 12.8138 102.381 12.8138C101.552 12.8138 100.867 13.1109 100.325 13.7049C99.7993 14.2833 99.5364 15.1196 99.5364 16.2138C99.5364 17.308 99.7993 18.1522 100.325 18.7462C100.867 19.3247 101.568 19.6138 102.428 19.6138Z" fill="#565C73"/>
<path d="M110.671 20.9811C111.692 21.6604 113.069 22 114.802 22C116.457 22 117.734 21.6905 118.631 21.0717C119.544 20.4377 120 19.5547 120 18.4227C120 17.5321 119.691 16.7623 119.072 16.1132C118.468 15.4491 117.571 14.9963 116.38 14.7547L114.245 14.3245C113.672 14.2038 113.263 14.0679 113.015 13.917C112.767 13.7509 112.643 13.5321 112.643 13.2604C112.643 12.9434 112.79 12.7019 113.085 12.5359C113.394 12.3547 113.858 12.2642 114.477 12.2642C115.157 12.2642 115.684 12.3698 116.055 12.5812C116.426 12.7774 116.643 13.0717 116.705 13.4642H119.815C119.722 12.3774 119.211 11.5321 118.283 10.9284C117.354 10.3095 116.109 10 114.547 10C112.968 10 111.739 10.317 110.857 10.9509C109.974 11.5698 109.534 12.4378 109.534 13.5547C109.534 14.4755 109.867 15.2302 110.532 15.8189C111.197 16.3924 112.234 16.8226 113.641 17.1094L115.545 17.4944C116.055 17.6 116.403 17.7358 116.588 17.9019C116.79 18.0529 116.89 18.2717 116.89 18.5585C116.89 18.9358 116.72 19.2302 116.38 19.4415C116.055 19.6377 115.529 19.7359 114.802 19.7359C113.997 19.7359 113.363 19.6075 112.899 19.3509C112.45 19.0792 112.187 18.6868 112.11 18.1736H109C109.093 19.3661 109.65 20.3019 110.671 20.9811Z" fill="#565C73"/>
<path d="M135 10.2308H138.341V12.3786C138.7 11.7298 139.17 11.1984 139.75 10.7847C140.478 10.2615 141.349 10 142.364 10C143.576 10 144.515 10.3462 145.182 11.0385C145.539 11.401 145.802 11.8119 145.973 12.2715C146.328 11.671 146.792 11.1754 147.364 10.7847C148.121 10.2615 149.031 10 150.091 10C151.349 10 152.31 10.3616 152.977 11.0846C153.659 11.7924 154 12.7231 154 13.877V22H150.591V14.5231C150.591 13.9231 150.432 13.4847 150.114 13.2077C149.81 12.9154 149.379 12.7693 148.818 12.7693C148.333 12.7693 147.887 12.8846 147.477 13.1155C147.083 13.3308 146.773 13.6462 146.546 14.0616C146.318 14.4616 146.205 14.9385 146.205 15.4924V22H142.796V14.5231C142.796 13.9231 142.637 13.4847 142.318 13.2077C142.015 12.9154 141.583 12.7693 141.023 12.7693C140.538 12.7693 140.091 12.8846 139.682 13.1155C139.288 13.3308 138.978 13.6462 138.75 14.0616C138.523 14.4616 138.409 14.9385 138.409 15.4924V22H135V10.2308Z" fill="#565C73"/>
<path d="M124.785 22C123.988 22 123.301 21.8231 122.726 21.4693C122.165 21.1 121.738 20.6154 121.442 20.0154C121.147 19.4 121 18.7154 121 17.9615V10H124.32V17.2923C124.32 17.9385 124.475 18.4231 124.785 18.7462C125.094 19.0692 125.53 19.2307 126.091 19.2307C126.592 19.2307 127.035 19.1077 127.418 18.8615C127.802 18.6154 128.105 18.2769 128.326 17.8461C128.562 17.4001 128.68 16.8923 128.68 16.3231V10H132V21.7692H128.746V19.613C128.394 20.2546 127.93 20.7888 127.352 21.2154C126.644 21.7385 125.788 22 124.785 22Z" fill="#565C73"/>
<path fill-rule="evenodd" clip-rule="evenodd" d="M82.5 22C81.209 22 80.0723 21.751 79.089 21.2528C78.1206 20.7396 77.36 20.0302 76.8071 19.1245C76.269 18.2038 76 17.1471 76 15.9547C76 14.7623 76.269 13.7208 76.8071 12.8302C77.36 11.9396 78.1206 11.2453 79.089 10.7472C80.0723 10.2491 81.209 10 82.5 10C83.8064 10 84.9432 10.2491 85.9116 10.7472C86.8948 11.2453 87.6555 11.9396 88.1935 12.8302C88.731 13.7208 89 14.7623 89 15.9547C89 17.1471 88.7232 18.2038 88.1703 19.1245C87.6323 20.0302 86.8716 20.7396 85.8884 21.2528C84.9206 21.751 83.791 22 82.5 22ZM82.5 19.3283C83.0381 19.3283 83.5219 19.1924 83.9523 18.9208C84.3981 18.649 84.7516 18.2641 85.0123 17.766C85.2735 17.2528 85.4045 16.6415 85.4045 15.9321C85.4045 14.8906 85.12 14.0906 84.5516 13.5321C83.9981 12.9585 83.3148 12.6717 82.5 12.6717C81.6858 12.6717 80.9942 12.9585 80.4258 13.5321C79.8723 14.1057 79.5961 14.9056 79.5961 15.9321C79.5961 16.6415 79.7265 17.2528 79.9877 17.766C80.249 18.2641 80.5948 18.649 81.0252 18.9208C81.4703 19.1924 81.9626 19.3283 82.5 19.3283Z" fill="#565C73"/>
<path fill-rule="evenodd" clip-rule="evenodd" d="M64.3419 25.9592C65.4095 26.6531 66.7874 27 68.4764 27C70.4997 27 72.0924 26.5066 73.2555 25.5198C74.4187 24.5483 75 23.2145 75 21.5184V10.2313H71.487V12.2487C71.275 11.6578 70.9011 11.1704 70.364 10.7865C69.6469 10.2621 68.7151 10 67.568 10C66.453 10 65.4731 10.2467 64.6287 10.7402C63.8002 11.2336 63.155 11.9275 62.693 12.8218C62.231 13.7162 62 14.7647 62 15.9674C62 17.1547 62.223 18.1878 62.6692 19.0667C63.1152 19.9456 63.7365 20.6318 64.5331 21.1251C65.3453 21.6032 66.2938 21.8422 67.3767 21.8422C68.5078 21.8422 69.4556 21.5955 70.2208 21.1021C70.782 20.7285 71.1807 20.2593 71.4154 19.6945V21.5646C71.4154 22.4127 71.1686 23.0372 70.675 23.4381C70.1807 23.839 69.3921 24.0395 68.3091 24.0395C67.6556 24.0395 67.1138 23.9624 66.6837 23.8082C66.2697 23.654 65.9988 23.4304 65.871 23.1375H62.4779C62.6692 24.3247 63.2904 25.2653 64.3419 25.9592ZM70.675 18.3497C70.1492 18.9048 69.4636 19.1823 68.6195 19.1823C67.7593 19.1823 67.0583 18.9048 66.5165 18.3497C65.9908 17.7946 65.7279 16.9928 65.7279 15.9442C65.7279 14.8957 65.9908 14.0862 66.5165 13.5156C67.0583 12.9452 67.7433 12.6599 68.572 12.6599C69.4322 12.6599 70.1252 12.9452 70.6509 13.5156C71.1927 14.0708 71.4636 14.8726 71.4636 15.9211C71.4636 16.9696 71.2007 17.7791 70.675 18.3497Z" fill="#565C73"/>
<path fill-rule="evenodd" clip-rule="evenodd" d="M54.5 22C53.2092 22 52.0721 21.751 51.0886 21.2528C50.1206 20.7396 49.3599 20.0302 48.8068 19.1245C48.2689 18.2038 48 17.1471 48 15.9547C48 14.7623 48.2689 13.7208 48.8068 12.8302C49.3599 11.9396 50.1206 11.2453 51.0886 10.7472C52.0721 10.2491 53.2092 10 54.5 10C55.8062 10 56.9433 10.2491 57.9114 10.7472C58.8948 11.2453 59.6554 11.9396 60.1932 12.8302C60.7311 13.7208 61 14.7623 61 15.9547C61 17.1471 60.7234 18.2038 60.1702 19.1245C59.6324 20.0302 58.8717 20.7396 57.8883 21.2528C56.9202 21.751 55.7908 22 54.5 22ZM54.5 19.3283C55.0379 19.3283 55.5219 19.1924 55.9521 18.9208C56.3977 18.649 56.7512 18.2641 57.0125 17.766C57.2736 17.2528 57.4043 16.6415 57.4043 15.9321C57.4043 14.8906 57.12 14.0906 56.5514 13.5321C55.9982 12.9585 55.3145 12.6717 54.5 12.6717C53.6856 12.6717 52.9941 12.9585 52.4256 13.5321C51.8723 14.1057 51.5957 14.9056 51.5957 15.9321C51.5957 16.6415 51.7264 17.2528 51.9876 17.766C52.2488 18.2641 52.5946 18.649 53.0248 18.9208C53.4705 19.1924 53.9622 19.3283 54.5 19.3283Z" fill="#565C73"/>
<path d="M36 5V22H48V19.2139H39.696V5H36Z" fill="#565C73"/>
</svg>
