<svg width="173" height="27" viewBox="0 0 173 27" fill="none" xmlns="http://www.w3.org/2000/svg">
<g clip-path="url(#clip0_33172_515)">
<path d="M24.4962 0.979831C25.0826 0.352456 25.8789 0 26.7082 0C30.4391 0 33.9552 1.95527e-06 37.4177 9.12545e-06C44.3818 2.41177e-05 47.8691 9.00851 42.9448 14.2771L32.2183 25.7534C31.7259 26.2802 30.8839 25.9071 30.8839 25.162V15.0541L32.1235 13.7278C33.1083 12.6741 32.4108 10.8724 31.018 10.8724H15.25L24.4962 0.979831Z" fill="#B3B8C6"/>
<path d="M21.0037 25.0202C20.4174 25.6476 19.621 26 18.7918 26C15.0608 26 11.5448 26 8.08232 26C1.1182 25.9999 -2.36909 16.9915 2.55526 11.7229L13.2817 0.246634C13.7741 -0.280229 14.6161 0.0929172 14.6161 0.838012L14.6162 10.9458L13.3765 12.2722C12.3917 13.3259 13.0892 15.1276 14.482 15.1276L30.25 15.1275L21.0037 25.0202Z" fill="#565C73"/>
<path d="M108.25 9V22H112.25V9H108.25Z" fill="#565C73"/>
<path d="M108.977 7.27275C109.462 7.75756 110.055 8 110.757 8C111.458 8 112.047 7.75756 112.523 7.27275C113.008 6.78788 113.25 6.19913 113.25 5.50649C113.25 4.79654 113.008 4.20346 112.523 3.72728C112.047 3.24243 111.458 3 110.757 3C110.055 3 109.462 3.24243 108.977 3.72728C108.492 4.20346 108.25 4.79654 108.25 5.50649C108.25 6.19913 108.492 6.78788 108.977 7.27275Z" fill="#565C73"/>
<path fill-rule="evenodd" clip-rule="evenodd" d="M114.25 26V8.21401H117.838V9.48612H117.885C118.111 9.26475 118.354 9.06264 118.615 8.87978C119.46 8.29322 120.432 8 121.533 8C122.498 8 123.418 8.24965 124.296 8.74901C125.18 9.2483 125.898 9.98944 126.448 10.9722C126.998 11.9551 127.265 13.1797 127.249 14.6459C127.257 15.7556 127.101 16.7226 126.783 17.5469C126.464 18.3633 126.033 19.0409 125.491 19.5799C124.949 20.1189 124.343 20.5231 123.673 20.7926C123.004 21.0621 122.326 21.1968 121.64 21.1968C120.556 21.1968 119.584 20.8957 118.723 20.2933C118.506 20.1396 118.3 19.9732 118.107 19.7939H118.029V26H114.25ZM120.755 18.0581C121.313 18.0502 121.804 17.9036 122.227 17.6182C122.649 17.3329 122.98 16.9287 123.219 16.4056C123.458 15.8824 123.574 15.2721 123.566 14.5746C123.574 13.8613 123.454 13.251 123.207 12.7437C122.968 12.2285 122.629 11.8361 122.191 11.5667C121.752 11.2893 121.25 11.1545 120.684 11.1624C120.15 11.1545 119.671 11.2853 119.249 11.5548C118.826 11.8243 118.492 12.2166 118.244 12.7318C117.997 13.2391 117.874 13.8534 117.874 14.5746C117.874 15.2721 117.997 15.8824 118.244 16.4056C118.499 16.9287 118.842 17.3329 119.273 17.6182C119.703 17.9036 120.198 18.0502 120.755 18.0581Z" fill="#565C73"/>
<path d="M131.275 20.6128C131.971 20.8709 132.699 21 133.458 21C134.328 21 135.123 20.8319 135.842 20.4955C136.57 20.1592 137.151 19.6899 137.586 19.0876C138.029 18.4775 138.25 17.7774 138.25 16.9874C138.25 16.3616 138.116 15.8337 137.847 15.4035C137.586 14.9733 137.254 14.6213 136.851 14.3475C136.455 14.0737 136.048 13.8586 135.629 13.7022C135.209 13.5379 134.842 13.4128 134.525 13.3267C134.114 13.2094 133.719 13.0882 133.339 12.963C132.96 12.8379 132.647 12.6893 132.402 12.5172C132.157 12.3451 132.034 12.1182 132.034 11.8366C132.034 11.5551 132.157 11.3204 132.402 11.1327C132.647 10.945 132.955 10.8511 133.328 10.8511C133.77 10.8511 134.134 10.9684 134.419 11.2031C134.712 11.4377 134.932 11.6802 135.083 11.9305L137.965 10.6986C137.602 9.88508 136.985 9.23197 136.115 8.73917C135.253 8.24643 134.28 8 133.197 8C132.327 8 131.552 8.16037 130.872 8.48106C130.2 8.80174 129.666 9.24763 129.27 9.81859C128.883 10.3818 128.689 11.0349 128.689 11.778C128.689 12.482 128.855 13.0804 129.187 13.5732C129.52 14.0659 129.951 14.4726 130.48 14.7934C131.018 15.1062 131.587 15.3526 132.189 15.5325C132.45 15.6029 132.735 15.6811 133.043 15.7672C133.359 15.8532 133.66 15.9549 133.944 16.0723C134.229 16.1896 134.462 16.3304 134.644 16.4946C134.826 16.6589 134.917 16.8544 134.917 17.0813C134.917 17.2612 134.854 17.4293 134.727 17.5858C134.609 17.7422 134.442 17.8713 134.229 17.9729C134.015 18.0668 133.766 18.1137 133.481 18.1137C132.944 18.1137 132.477 17.9495 132.081 17.621C131.686 17.2924 131.39 16.9444 131.192 16.5767L128.25 17.8556C128.519 18.4892 128.918 19.0445 129.448 19.5217C129.978 19.991 130.587 20.3547 131.275 20.6128Z" fill="#565C73"/>
<path d="M153.25 21V8.19053H156.932V9.82147H156.999C157.288 9.43177 157.612 9.10241 157.973 8.83335C158.707 8.27778 159.575 8 160.578 8C161.41 8 162.116 8.19841 162.695 8.59528C163.141 8.89107 163.505 9.28788 163.787 9.78572H163.856C164.273 9.26872 164.779 8.8639 165.374 8.57145C166.149 8.19053 166.993 8 167.907 8C168.779 8 169.497 8.15081 170.06 8.45242C170.623 8.74603 171.063 9.13496 171.381 9.61909C171.699 10.0953 171.923 10.6191 172.054 11.1905C172.185 11.754 172.25 12.3016 172.25 12.8334V21H168.359V13.2976C168.359 12.5992 168.208 12.0635 167.907 11.6905C167.613 11.3095 167.181 11.1191 166.61 11.1191C166.234 11.1191 165.9 11.2024 165.606 11.3691C165.321 11.5278 165.093 11.7698 164.922 12.0952C164.758 12.4207 164.677 12.8215 164.677 13.2976V21H160.811V13.2976C160.811 12.5992 160.66 12.0635 160.358 11.6905C160.056 11.3095 159.62 11.1191 159.049 11.1191C158.495 11.1191 158.034 11.3056 157.666 11.6786C157.3 12.0437 157.116 12.5913 157.116 13.3215V21H153.25Z" fill="#565C73"/>
<path d="M144.151 22C143.244 22 142.42 21.8135 141.676 21.4405C140.933 21.0595 140.341 20.504 139.899 19.7738C139.467 19.0357 139.25 18.127 139.25 17.0476V9H143.122V16.5476C143.122 17.2857 143.318 17.8492 143.71 18.2381C144.11 18.6191 144.597 18.8095 145.168 18.8095C145.593 18.8095 145.965 18.7182 146.283 18.5357C146.61 18.3532 146.863 18.0953 147.043 17.7619C147.231 17.4206 147.325 17.0159 147.325 16.5476V9H151.196V17.3214C151.196 17.7817 151.266 18.1151 151.405 18.3214C151.544 18.5278 151.825 18.7064 152.25 18.8571L150.878 22C149.906 21.754 149.195 21.4326 148.746 21.0358C148.52 20.8358 148.349 20.6056 148.232 20.3453H148.134C147.791 20.6794 147.412 20.9771 146.994 21.2381C146.169 21.746 145.221 22 144.151 22Z" fill="#565C73"/>
<path fill-rule="evenodd" clip-rule="evenodd" d="M99.7503 21C98.5525 21 97.4595 20.7224 96.4712 20.167C95.4897 19.6116 94.7059 18.8451 94.1186 17.8674C93.5393 16.8896 93.25 15.7633 93.25 14.4883C93.25 13.2133 93.5393 12.087 94.1186 11.1092C94.7059 10.1315 95.4897 9.36885 96.4712 8.82131C97.4595 8.27377 98.5525 8 99.7503 8C100.971 8 102.071 8.27377 103.053 8.82131C104.033 9.36885 104.81 10.1315 105.381 11.1092C105.961 12.087 106.25 13.2133 106.25 14.4883C106.25 15.7633 105.961 16.8896 105.381 17.8674C104.81 18.8451 104.03 19.6116 103.041 20.167C102.06 20.7224 100.963 21 99.7503 21ZM99.7503 17.8321C100.321 17.8321 100.835 17.6914 101.291 17.4098C101.747 17.1282 102.106 16.7371 102.369 16.2365C102.631 15.7359 102.763 15.1531 102.763 14.4883C102.763 13.8469 102.635 13.2759 102.38 12.7753C102.125 12.2747 101.774 11.8836 101.326 11.602C100.878 11.3126 100.36 11.1679 99.7734 11.1679C99.1941 11.1679 98.6722 11.3087 98.2089 11.5903C97.7531 11.864 97.394 12.2512 97.1315 12.7518C96.869 13.2524 96.7374 13.8313 96.7374 14.4883C96.7374 15.1531 96.869 15.7359 97.1315 16.2365C97.4015 16.7371 97.765 17.1282 98.2208 17.4098C98.6766 17.6914 99.186 17.8321 99.7503 17.8321Z" fill="#565C73"/>
<path fill-rule="evenodd" clip-rule="evenodd" d="M82.4372 25.6115C83.3348 25.8705 84.3211 26 85.3954 26C86.3978 26 87.3155 25.8744 88.1496 25.6233C88.9832 25.38 89.7047 25.0111 90.3137 24.5167C90.9311 24.0223 91.4081 23.4101 91.7452 22.6802C92.0817 21.9503 92.25 21.1027 92.25 20.1373V8.18835H88.7987V9.42441H88.7269C88.4972 9.2092 88.2487 9.013 87.9807 8.8358C87.1472 8.27856 86.1732 8 85.0588 8C84.0965 8 83.1704 8.23934 82.2806 8.71809C81.3908 9.18899 80.6614 9.89536 80.0919 10.8372C79.5309 11.7711 79.25 12.9444 79.25 14.3571C79.25 15.4166 79.4144 16.3388 79.7431 17.1236C80.0719 17.9084 80.5087 18.5637 81.0543 19.0896C81.6076 19.6076 82.2204 19.9961 82.8941 20.2551C83.5678 20.5062 84.2447 20.6318 84.9262 20.6318C86.025 20.6318 87.0029 20.3375 87.861 19.7489C88.1322 19.5601 88.3859 19.3522 88.6208 19.1249H88.6784V20.3493C88.6784 20.9536 88.4784 21.4402 88.0772 21.809C87.6766 22.1858 87.1912 22.4605 86.6224 22.6331C86.0529 22.8058 85.5034 22.8921 84.9747 22.8921C84.3573 22.8921 83.7477 22.794 83.1465 22.5978C82.5531 22.4094 82.0321 22.1818 81.5836 21.915L80.3327 24.8346C80.8459 25.1014 81.5474 25.3604 82.4372 25.6115ZM87.3918 17.1825C86.9511 17.465 86.4418 17.6062 85.8645 17.6062C85.2951 17.6062 84.7942 17.465 84.3612 17.1825C83.9283 16.8921 83.5879 16.4958 83.3394 15.9934C83.0908 15.4833 82.9659 14.8986 82.9659 14.2393C82.9659 13.5801 83.0908 13.0071 83.3394 12.5206C83.5956 12.034 83.9483 11.6612 84.3975 11.4022C84.8466 11.1354 85.3552 11.0019 85.9247 11.0019C86.4936 11.0019 86.9951 11.1314 87.4281 11.3904C87.861 11.6495 88.2014 12.0222 88.4499 12.5088C88.6984 12.9876 88.8227 13.5644 88.8227 14.2393C88.8227 14.9064 88.6945 15.4951 88.4383 16.0052C88.1814 16.5075 87.8325 16.8999 87.3918 17.1825Z" fill="#565C73"/>
<path fill-rule="evenodd" clip-rule="evenodd" d="M71.75 21C70.5529 21 69.4599 20.7224 68.471 20.167C67.4902 19.6116 66.7059 18.8451 66.1192 17.8674C65.5399 16.8896 65.25 15.7633 65.25 14.4883C65.25 13.2133 65.5399 12.087 66.1192 11.1092C66.7059 10.1315 67.4902 9.36885 68.471 8.82131C69.4599 8.27377 70.5529 8 71.75 8C72.9702 8 74.0713 8.27377 75.0521 8.82131C76.0328 9.36885 76.8091 10.1315 77.3808 11.1092C77.9601 12.087 78.25 13.2133 78.25 14.4883C78.25 15.7633 77.9601 16.8896 77.3808 17.8674C76.8091 18.8451 76.0291 19.6116 75.0402 20.167C74.0595 20.7224 72.9627 21 71.75 21ZM71.75 17.8321C72.3218 17.8321 72.8349 17.6914 73.2907 17.4098C73.7465 17.1282 74.1056 16.7371 74.3687 16.2365C74.6312 15.7359 74.7621 15.1531 74.7621 14.4883C74.7621 13.8469 74.6349 13.2759 74.3799 12.7753C74.1249 12.2747 73.7739 11.8836 73.3256 11.602C72.8779 11.3126 72.3598 11.1679 71.7731 11.1679C71.1938 11.1679 70.6726 11.3087 70.2087 11.5903C69.7529 11.864 69.3938 12.2512 69.1313 12.7518C68.8688 13.2524 68.7372 13.8313 68.7372 14.4883C68.7372 15.1531 68.8688 15.7359 69.1313 16.2365C69.4019 16.7371 69.7648 17.1282 70.2206 17.4098C70.6763 17.6914 71.1857 17.8321 71.75 17.8321Z" fill="#565C73"/>
<path d="M54.25 4V22H64.25V18.4342H58.0683V4H54.25Z" fill="#565C73"/>
</g>
<defs>
<clipPath id="clip0_33172_515">
<rect width="172" height="27" fill="white" transform="translate(0.25)"/>
</clipPath>
</defs>
</svg>
