<svg width="91" height="93" viewBox="0 0 91 93" fill="none" xmlns="http://www.w3.org/2000/svg">
<path d="M1.58992 56.8825C7.37693 60.1371 23.7794 69.6123 30.5058 62.0207C33.3047 58.8618 35.3577 52.9402 34.3405 48.64C32.1558 39.4055 17.5964 37.6686 21.1917 49.6709C23.208 56.402 31.678 59.0719 37.7017 60.8799C46.5812 63.5449 54.0431 60.7941 61.9006 56.7151C65.891 54.6436 82.1152 40.9144 80.7697 40.6223" stroke="white" stroke-width="2" stroke-linecap="round"/>
<path d="M87.3991 36.3591C86.0045 36.107 75.2646 34.5204 76.6004 34.5424C78.3488 34.5711 80.1496 34.7814 81.8904 34.5928C83.95 34.3696 86.034 34.669 88.0536 34.2204C89.8258 33.8267 85.7038 42.4422 84.6547 43.7463" stroke="white" stroke-width="2" stroke-linecap="round"/>
</svg>
