<svg width="453" height="55" viewBox="0 0 453 55" fill="none" xmlns="http://www.w3.org/2000/svg">
<rect y="10.7993" width="10" height="44" rx="5" fill="#D7E8FF"/>
<rect x="130" y="5.79932" width="10" height="49" rx="5" fill="#D7E8FF"/>
<rect x="65" y="18.7993" width="10" height="35" rx="5" fill="#D7E8FF"/>
<rect x="195" y="5.79932" width="10" height="49" rx="5" fill="#D7E8FF"/>
<rect x="281" y="5.79932" width="10" height="49" rx="5" fill="#D7E8FF"/>
<rect x="369" y="5.79932" width="10" height="49" rx="5" fill="#D7E8FF"/>
<rect x="32" y="16.7993" width="10" height="38" rx="5" fill="#D7E8FF"/>
<rect x="162" y="5.79932" width="10" height="49" rx="5" fill="#D7E8FF"/>
<rect x="97" y="10.7993" width="10" height="44" rx="5" fill="#D7E8FF"/>
<rect x="227" y="5.79932" width="10" height="49" rx="5" fill="#D7E8FF"/>
<rect x="313" y="5.79932" width="10" height="49" rx="5" fill="#D7E8FF"/>
<rect x="399" y="5.79932" width="10" height="49" rx="5" fill="#D7E8FF"/>
<rect x="11" y="10.7993" width="10" height="44" rx="5" fill="#D7E8FF"/>
<rect x="141" y="0.799316" width="10" height="54" rx="5" fill="#D7E8FF"/>
<rect x="76" y="10.7993" width="10" height="44" rx="5" fill="#D7E8FF"/>
<rect x="206" y="5.79932" width="10" height="49" rx="5" fill="#D7E8FF"/>
<rect x="292" y="5.79932" width="10" height="49" rx="5" fill="#D7E8FF"/>
<rect x="378" y="5.79932" width="10" height="49" rx="5" fill="#D7E8FF"/>
<rect x="44" y="5.79932" width="10" height="49" rx="5" fill="#D7E8FF"/>
<rect x="174" y="13.7993" width="10" height="41" rx="5" fill="#D7E8FF"/>
<rect x="109" y="0.799316" width="10" height="54" rx="5" fill="#D7E8FF"/>
<rect x="239" y="10.7993" width="10" height="44" rx="5" fill="#D7E8FF"/>
<rect x="325" y="10.7993" width="10" height="44" rx="5" fill="#D7E8FF"/>
<rect x="411" y="10.7993" width="10" height="44" rx="5" fill="#D7E8FF"/>
<rect x="21" y="25.7993" width="10" height="29" rx="5" fill="#D7E8FF"/>
<rect x="151" y="11.7993" width="10" height="42" rx="5" fill="#D7E8FF"/>
<rect x="86" y="0.799316" width="10" height="54" rx="5" fill="#D7E8FF"/>
<rect x="216" y="10" width="10" height="44" rx="5" fill="#D7E8FF"/>
<rect x="304" y="10" width="10" height="44" rx="5" fill="#D7E8FF"/>
<rect x="390" y="10" width="10" height="44" rx="5" fill="#D7E8FF"/>
<rect x="54" y="6" width="10" height="49" rx="5" fill="#D7E8FF"/>
<rect x="183" y="8" width="10" height="47" rx="5" fill="#D7E8FF"/>
<rect x="271" y="8" width="10" height="47" rx="5" fill="#D7E8FF"/>
<rect x="357" y="8" width="10" height="47" rx="5" fill="#D7E8FF"/>
<rect x="119" y="12" width="10" height="42" rx="5" fill="#D7E8FF"/>
<rect x="248" y="19" width="10" height="35" rx="5" fill="#D7E8FF"/>
<rect x="336" y="19" width="10" height="35" rx="5" fill="#D7E8FF"/>
<rect x="422" y="19" width="10" height="35" rx="5" fill="#D7E8FF"/>
<rect x="260" y="12" width="10" height="42" rx="5" fill="#D7E8FF"/>
<rect x="346" y="12" width="10" height="42" rx="5" fill="#D7E8FF"/>
<rect x="432" y="12" width="10" height="42" rx="5" fill="#D7E8FF"/>
<rect x="443" y="12" width="10" height="42" rx="5" fill="#D7E8FF"/>
<rect y="38" width="10" height="17" rx="5" fill="#287AFF"/>
<rect x="130" y="30" width="10" height="25" rx="5" fill="#287AFF"/>
<rect x="65" y="37" width="10" height="18" rx="5" fill="#287AFF"/>
<rect x="195" y="23" width="10" height="32" rx="5" fill="#287AFF"/>
<rect x="281" y="15" width="10" height="40" rx="5" fill="#287AFF"/>
<rect x="369" y="26" width="10" height="28" rx="5" fill="#287AFF"/>
<rect x="32" y="32" width="10" height="22" rx="5" fill="#287AFF"/>
<rect x="162" y="28" width="10" height="27" rx="5" fill="#287AFF"/>
<rect x="97" y="23" width="10" height="32" rx="5" fill="#287AFF"/>
<rect x="227" y="24" width="10" height="31" rx="5" fill="#287AFF"/>
<rect x="313" y="33" width="10" height="21" rx="5" fill="#287AFF"/>
<rect x="399" y="39" width="10" height="16" rx="5" fill="#287AFF"/>
<rect x="11" y="34" width="10" height="20" rx="5" fill="#287AFF"/>
<rect x="141" y="28" width="10" height="27" rx="5" fill="#287AFF"/>
<rect x="76" y="32" width="10" height="22" rx="5" fill="#287AFF"/>
<rect x="206" y="24" width="10" height="31" rx="5" fill="#287AFF"/>
<rect x="292" y="26" width="10" height="28" rx="5" fill="#287AFF"/>
<rect x="378" y="34" width="10" height="20" rx="5" fill="#287AFF"/>
<rect x="44" y="33" width="10" height="21" rx="5" fill="#287AFF"/>
<rect x="174" y="26" width="10" height="28" rx="5" fill="#287AFF"/>
<rect x="109" y="32" width="10" height="23" rx="5" fill="#287AFF"/>
<rect x="239" y="17" width="10" height="37" rx="5" fill="#287AFF"/>
<rect x="325" y="40" width="10" height="15" rx="5" fill="#287AFF"/>
<rect x="411" y="24" width="10" height="31" rx="5" fill="#287AFF"/>
<rect x="21" y="42" width="10" height="12" rx="5" fill="#287AFF"/>
<rect x="151" y="19" width="10" height="35" rx="5" fill="#287AFF"/>
<rect x="86" y="26" width="10" height="28" rx="5" fill="#287AFF"/>
<rect x="216" y="16" width="10" height="39" rx="5" fill="#287AFF"/>
<rect x="304" y="32" width="10" height="22" rx="5" fill="#287AFF"/>
<rect x="390" y="32" width="10" height="22" rx="5" fill="#287AFF"/>
<rect x="54" y="28" width="10" height="27" rx="5" fill="#287AFF"/>
<rect x="183" y="20" width="10" height="35" rx="5" fill="#287AFF"/>
<rect x="271" y="17" width="10" height="38" rx="5" fill="#287AFF"/>
<rect x="357" y="32" width="10" height="23" rx="5" fill="#287AFF"/>
<rect x="119" y="34" width="10" height="20" rx="5" fill="#287AFF"/>
<rect x="248" y="26" width="10" height="28" rx="5" fill="#287AFF"/>
<rect x="336" y="36" width="10" height="19" rx="5" fill="#287AFF"/>
<rect x="422" y="29" width="10" height="26" rx="5" fill="#287AFF"/>
<rect x="260" y="23" width="10" height="32" rx="5" fill="#287AFF"/>
<rect x="346" y="30" width="10" height="25" rx="5" fill="#287AFF"/>
<rect x="432" y="26" width="10" height="28" rx="5" fill="#287AFF"/>
<rect x="443" y="33" width="10" height="21" rx="5" fill="#287AFF"/>
</svg>
