<svg width="382" height="144" viewBox="0 0 382 144" fill="none" xmlns="http://www.w3.org/2000/svg">
<path d="M36.7316 30.599V6C36.7316 3.23858 34.493 1 31.7316 1H5C2.23858 1 0 3.23858 0 6V35.6447C0 38.4061 2.23858 40.6447 5 40.6447H31.7316C34.493 40.6447 36.7316 42.8833 36.7316 45.6447V64.4772C36.7316 67.2386 34.493 69.4772 31.7316 69.4772H5C2.23858 69.4772 0 71.7157 0 74.4772V104.122C0 106.883 2.23858 109.122 5 109.122H31.7316C34.493 109.122 36.7316 106.883 36.7316 104.122V77.3604C36.7316 74.599 38.9701 72.3604 41.7316 72.3604H68.4631C71.2246 72.3604 73.4631 74.599 73.4631 77.3604V104.122C73.4631 106.883 75.7017 109.122 78.4631 109.122H105.915C108.676 109.122 110.915 111.36 110.915 114.122V138C110.915 140.761 113.154 143 115.915 143H144.087C146.848 143 149.087 140.761 149.087 138V114.122C149.087 111.36 151.326 109.122 154.087 109.122H179.378C182.139 109.122 184.378 106.883 184.378 104.122V77.3604C184.378 74.599 182.139 72.3604 179.378 72.3604H154.087C151.326 72.3604 149.087 74.599 149.087 77.3604V98.3553C149.087 101.117 146.848 103.355 144.087 103.355H115.915C113.154 103.355 110.915 101.117 110.915 98.3553V72.3147C110.915 69.5533 108.676 67.3147 105.915 67.3147H78.4631C75.7017 67.3147 73.4631 65.0761 73.4631 62.3147V40.599C73.4631 37.8376 71.2246 35.599 68.4631 35.599H41.7316C38.9701 35.599 36.7316 33.3604 36.7316 30.599Z" stroke="black" stroke-opacity="0.07"/>
<path d="M149.087 30.599V6C149.087 3.23858 151.326 1 154.087 1H181.539C184.3 1 186.539 3.23857 186.539 6V26.9949C186.539 29.7563 188.777 31.9949 191.539 31.9949H215.389C218.151 31.9949 220.389 29.7564 220.389 26.9949V11.7665C220.389 9.00507 222.628 6.7665 225.389 6.7665H252.121C254.882 6.7665 257.121 9.00507 257.121 11.7665V35.6447C257.121 38.4061 254.882 40.6447 252.121 40.6447H225.389C222.628 40.6447 220.389 42.8833 220.389 45.6447V62.3147C220.389 65.0761 218.151 67.3147 215.389 67.3147H189.378C186.617 67.3147 184.378 65.0761 184.378 62.3147V40.599C184.378 37.8376 182.139 35.599 179.378 35.599H154.087C151.326 35.599 149.087 33.3604 149.087 30.599Z" stroke="black" stroke-opacity="0.07"/>
<path d="M308.977 30.599V6C308.977 3.23858 311.216 1 313.977 1H342.87C345.631 1 347.87 3.23857 347.87 6V26.9949C347.87 29.7563 350.108 31.9949 352.87 31.9949H376C378.761 31.9949 381 34.2335 381 36.9949V62.3147C381 65.0761 378.761 67.3147 376 67.3147H347.828C345.067 67.3147 342.828 65.0761 342.828 62.3147V40.599C342.828 37.8376 340.589 35.599 337.828 35.599H313.977C311.216 35.599 308.977 33.3604 308.977 30.599Z" stroke="black" stroke-opacity="0.07"/>
</svg>
