<?xml version="1.0" encoding="utf-8"?>
<!-- Generator: Adobe Illustrator 16.0.0, SVG Export Plug-In . SVG Version: 6.00 Build 0)  -->
<!DOCTYPE svg PUBLIC "-//W3C//DTD SVG 1.1//EN" "http://www.w3.org/Graphics/SVG/1.1/DTD/svg11.dtd">
<svg version="1.1" id="圖層_1" xmlns="http://www.w3.org/2000/svg" xmlns:xlink="http://www.w3.org/1999/xlink" x="0px" y="0px"
	 width="40px" height="40px" viewBox="0 0 40 40" enable-background="new 0 0 40 40" xml:space="preserve">
<path fill="#252E3D" d="M33.725,36.581C37.742,32.563,40,27.111,40,21.429c0-5.683-2.258-11.134-6.275-15.152
	C29.705,2.258,24.255,0,18.572,0S7.438,2.258,3.419,6.276l7.071,7.071c1.116,1.116,2.917,1.06,4.337,0.371
	c1.156-0.562,2.435-0.861,3.744-0.861c2.274,0,4.454,0.903,6.061,2.511s2.51,3.788,2.51,6.061c0,1.31-0.299,2.588-0.86,3.744
	c-0.689,1.419-0.745,3.222,0.37,4.337L33.725,36.581z"/>
<path fill="#252E3D" d="M30,40H19.51c-1.516,0-2.969-0.602-4.041-1.674L1.674,24.531C0.602,23.459,0,22.006,0,20.49V10L30,40z"/>
<path fill="#252E3D" d="M10.714,40H4.286C1.919,40,0,38.081,0,35.715v-6.43L10.714,40z"/>
</svg>
