<?xml version="1.0" encoding="utf-8"?>
<!-- Generator: Adobe Illustrator 16.0.0, SVG Export Plug-In . SVG Version: 6.00 Build 0)  -->
<!DOCTYPE svg PUBLIC "-//W3C//DTD SVG 1.1//EN" "http://www.w3.org/Graphics/SVG/1.1/DTD/svg11.dtd">
<svg version="1.1" id="圖層_1" xmlns="http://www.w3.org/2000/svg" xmlns:xlink="http://www.w3.org/1999/xlink" x="0px" y="0px"
	 width="49px" height="40px" viewBox="0 0 49 40" enable-background="new 0 0 49 40" xml:space="preserve">
<path fill="#252E3D" d="M24.973,0l4.715,3.929l-4.074,3.395c-0.371,0.309-0.91,0.309-1.281,0l-4.074-3.395L24.973,0z"/>
<path fill="#252E3D" d="M24.333,11.354c0.371,0.309,0.91,0.309,1.281,0l6.492-5.411l3.734,3.112l-8.307,6.922
	c-1.482,1.236-3.638,1.236-5.121,0l-8.307-6.922l3.734-3.112L24.333,11.354z"/>
<path fill="#252E3D" d="M24.973,40l-4.714-3.929l4.074-3.396c0.371-0.309,0.91-0.309,1.281,0l4.074,3.396L24.973,40z"/>
<path fill="#252E3D" d="M25.613,28.646c-0.371-0.31-0.91-0.31-1.281,0l-6.493,5.411l-3.734-3.113l8.307-6.922
	c1.483-1.236,3.639-1.236,5.121,0l8.307,6.922l-3.734,3.113L25.613,28.646z"/>
<path fill="#252E3D" d="M48.973,20l-4.715-3.929l-3.792,3.161c-0.479,0.4-0.479,1.136,0,1.536l3.792,3.161L48.973,20z"/>
<path fill="#252E3D" d="M35.629,20.768c-0.479-0.399-0.479-1.136,0-1.536l6.211-5.176l-3.734-3.112l-7.18,5.983
	c-1.919,1.599-1.919,4.546,0,6.145l7.18,5.984l3.734-3.113L35.629,20.768z"/>
<path fill="#252E3D" d="M0.973,20l4.714,3.929l3.792-3.16c0.479-0.4,0.479-1.137,0-1.537l-3.792-3.161L0.973,20z"/>
<path fill="#252E3D" d="M14.316,19.232c0.479,0.4,0.479,1.137,0,1.537l-6.211,5.176l3.734,3.112l7.18-5.983
	c1.919-1.6,1.919-4.547,0-6.146l-7.18-5.983l-3.734,3.112L14.316,19.232z"/>
</svg>
