<?xml version="1.0" encoding="utf-8"?>
<!-- Generator: Adobe Illustrator 16.0.0, SVG Export Plug-In . SVG Version: 6.00 Build 0)  -->
<!DOCTYPE svg PUBLIC "-//W3C//DTD SVG 1.1//EN" "http://www.w3.org/Graphics/SVG/1.1/DTD/svg11.dtd">
<svg version="1.1" id="圖層_1" xmlns="http://www.w3.org/2000/svg" xmlns:xlink="http://www.w3.org/1999/xlink" x="0px" y="0px"
	 width="40px" height="40px" viewBox="0 0 40 40" enable-background="new 0 0 40 40" xml:space="preserve">
<path fill="#252E3D" d="M16.658,40h-1.276c-3.316,0-5.312,0-6.836-0.284l8.821-11.682L16.658,40z"/>
<path fill="#252E3D" d="M31.248,39.752C29.75,39.999,27.787,40,24.618,40h-1.509l-0.713-11.969L31.248,39.752z"/>
<path fill="#252E3D" d="M39.672,31.671c-0.064,0.307-0.141,0.595-0.232,0.872c-0.605,1.813-1.668,3.409-3.053,4.655l-9.947-11.154
	L39.672,31.671z"/>
<path fill="#252E3D" d="M3.485,37.079c-1.321-1.228-2.338-2.779-2.924-4.536c-0.102-0.305-0.186-0.622-0.254-0.963l13.017-5.534
	L3.485,37.079z"/>
<path fill="#252E3D" d="M40,24.618c0,1.124-0.004,2.097-0.014,2.951l-11.813-4.563H40V24.618z"/>
<path fill="#252E3D" d="M11.596,23.006L0.011,27.48C0,26.648,0,25.704,0,24.618v-1.612H11.596z"/>
<path fill="#252E3D" d="M24.618,0c4.163,0,6.243,0,7.925,0.561c3.255,1.086,5.811,3.641,6.896,6.896C40,9.138,40,11.219,40,15.382
	v4.634H27.509l9.009-3.83l-2.672-1.774l-8.74,3.375l4.103-5.43l-2.95-0.808l-4.531,5.078l-0.338-5.719h-3.006l-0.342,5.719
	l-4.528-5.078l-2.949,0.808l4.098,5.428l-8.736-3.374l-2.672,1.774l9.007,3.83H0v-4.634c0-4.163,0-6.244,0.561-7.924
	c1.086-3.255,3.641-5.811,6.896-6.896C9.138,0,11.219,0,15.382,0H24.618z"/>
</svg>
