<?xml version="1.0" encoding="utf-8"?>
<!-- Generator: Adobe Illustrator 16.0.0, SVG Export Plug-In . SVG Version: 6.00 Build 0)  -->
<!DOCTYPE svg PUBLIC "-//W3C//DTD SVG 1.1//EN" "http://www.w3.org/Graphics/SVG/1.1/DTD/svg11.dtd">
<svg version="1.1" id="圖層_1" xmlns="http://www.w3.org/2000/svg" xmlns:xlink="http://www.w3.org/1999/xlink" x="0px" y="0px"
	 width="63px" height="40px" viewBox="0 0 63 40" enable-background="new 0 0 63 40" xml:space="preserve">
<path fill="#252E3D" d="M63,29.351L38.117,5.089C37.4,4.391,36.44,4,35.439,4c-3.441,0-5.14,4.183-2.674,6.583l26.705,25.983
	c1.287,1.252,0.4,3.434-1.395,3.434H9.657c-1.061,0-2.078-0.422-2.828-1.172l-5.657-5.656C0.421,32.422,0,31.404,0,30.344V10.648
	l24.883,24.263C25.599,35.609,26.56,36,27.56,36c3.441,0,5.141-4.184,2.674-6.583L3.529,3.434C2.242,2.182,3.128,0,4.923,0h48.42
	c1.061,0,2.078,0.421,2.828,1.171l5.656,5.657C62.578,7.579,63,8.596,63,9.657V29.351z"/>
</svg>
