<svg width="172" height="30" viewBox="0 0 172 30" fill="none" xmlns="http://www.w3.org/2000/svg">
<g clip-path="url(#clip0_33172_542)">
<path d="M44.75 1C43.088 0.35934 41.2219 0 39.25 0C37.2781 0 35.412 0.35934 33.75 1H44.75Z" fill="#565C73"/>
<path d="M32.2477 1.33333C32.3828 1.21895 32.5198 1.1078 32.6585 1H45.6835C46.424 1.57576 47.1161 2.24674 47.75 3H30.592C30.6871 2.88703 30.7834 2.7759 30.8811 2.66667H18.1264C18.1882 2.59753 18.2505 2.52916 18.3133 2.46155H5.75C5.97079 2.22977 6.19761 2.00739 6.43011 1.79489H18.9757C19.1451 1.63568 19.3176 1.48177 19.493 1.33333H32.2477Z" fill="#565C73"/>
<path d="M49.75 6C49.3611 5.28991 48.9304 4.62122 48.4627 4H30.181C30.0985 4.10964 30.0171 4.22077 29.9369 4.33333H17.1371C17.0294 4.4846 16.9237 4.63848 16.8203 4.79489H4.17714C4.03042 5.01217 3.88799 5.23446 3.75 5.46155H16.4017C16.3612 5.52951 16.3211 5.59788 16.2815 5.66667H29.0811C29.0177 5.77673 28.9552 5.88785 28.8938 6H49.75Z" fill="#565C73"/>
<path d="M27.9703 6.33335C28.0233 6.22134 28.0773 6.11025 28.1322 6H49.8971C50.2153 6.63819 50.5006 7.30617 50.75 8H27.2793C27.3195 7.88824 27.3606 7.77714 27.4026 7.66664H14.4752C14.5014 7.59804 14.5279 7.5297 14.5547 7.46152H1.75C1.84068 7.23632 1.93524 7.01397 2.03356 6.79487H14.8324C14.9007 6.63945 14.9709 6.48561 15.0429 6.33335H27.9703Z" fill="#565C73"/>
<path d="M51.75 10C51.609 9.31487 51.4354 8.64715 51.2315 8H27.5947C27.5599 8.11051 27.526 8.2216 27.4929 8.33328H14.72C14.6748 8.48603 14.6313 8.63995 14.5895 8.79488H1.9225C1.86152 9.01497 1.80399 9.23724 1.75 9.46152H14.4217C14.4057 9.5297 14.3901 9.59804 14.3748 9.66664H27.1477C27.123 9.77723 27.0992 9.88841 27.0762 10H51.75Z" fill="#565C73"/>
<path d="M26.4402 10.3334C26.4576 10.2218 26.4758 10.1107 26.4949 10H51.5021C51.6149 10.653 51.6981 11.3205 51.75 12H26.2471C26.2556 11.8886 26.2649 11.7775 26.2751 11.6666H13.4604C13.4667 11.5981 13.4733 11.5298 13.4803 11.4615H0.75C0.774094 11.2378 0.8016 11.0156 0.83245 10.7949H13.5586C13.5793 10.6403 13.6015 10.4864 13.6255 10.3334H26.4402Z" fill="#565C73"/>
<path d="M51.75 14C51.75 14.3358 51.7424 14.6692 51.7274 15H26.2372C26.2322 14.8892 26.228 14.7781 26.2247 14.6667H13.457C13.4549 14.5985 13.4532 14.53 13.4517 14.4616H0.752503C0.750837 14.3508 0.75 14.2396 0.75 14.1282C0.75 14.0169 0.750837 13.9057 0.752503 13.7949H13.4479C13.4493 13.6405 13.4524 13.4867 13.457 13.3334H26.2247C26.228 13.2219 26.2322 13.1108 26.2372 13H51.7274C51.7424 13.3309 51.75 13.6643 51.75 14Z" fill="#565C73"/>
<path d="M51.75 15C51.6981 15.6794 51.6149 16.347 51.5021 17H26.4949C26.4758 16.8892 26.4576 16.7781 26.4402 16.6666H13.6255C13.6148 16.5984 13.6045 16.53 13.5944 16.4615H0.83245C0.8016 16.2408 0.774094 16.0186 0.75 15.7949H13.5079C13.4904 15.6417 13.4746 15.4878 13.4604 15.3333H26.2751C26.2649 15.2225 26.2556 15.1114 26.2471 15H51.75Z" fill="#565C73"/>
<path d="M27.4929 18.6666C27.526 18.7784 27.5599 18.8895 27.5947 19H51.2315C51.4354 18.3528 51.609 17.6851 51.75 17H27.0762C27.0992 17.1116 27.123 17.2227 27.1477 17.3334H14.3748C14.4094 17.4881 14.4455 17.642 14.4834 17.7949H1.75C1.80399 18.0192 1.86152 18.2414 1.9225 18.4615H14.6605C14.68 18.5301 14.6999 18.5985 14.72 18.6666H27.4929Z" fill="#565C73"/>
<path d="M50.75 20C50.5006 20.6939 50.2153 21.3619 49.8971 22H28.1322C28.0773 21.8898 28.0233 21.7787 27.9703 21.6667H15.0429C15.0107 21.5986 14.9789 21.5303 14.9474 21.4616H2.03356C1.93524 21.2424 1.84068 21.0202 1.75 20.7949H14.6579C14.5952 20.6425 14.5343 20.4886 14.4752 20.3334H27.4026C27.3606 20.2229 27.3195 20.1118 27.2793 20H50.75Z" fill="#565C73"/>
<path d="M29.9369 23.6666C30.0171 23.7792 30.0985 23.8903 30.181 24H48.4627C48.9304 23.3788 49.3611 22.7101 49.75 22H28.8938C28.9552 22.1121 29.0177 22.2233 29.0811 22.3333H16.2815C16.3714 22.4893 16.4635 22.6432 16.5575 22.7949H3.75C3.88799 23.0219 4.03042 23.2443 4.17714 23.4615H16.9934C17.0409 23.5304 17.0888 23.5988 17.1371 23.6666H29.9369Z" fill="#565C73"/>
<path d="M47.75 24C47.1161 24.7533 46.424 25.4243 45.6835 26H32.6585C32.5198 25.8923 32.3828 25.7811 32.2477 25.6667H19.493C19.4135 25.5995 19.3346 25.531 19.2564 25.4616H6.43011C6.19761 25.249 5.97079 25.0267 5.75 24.7949H18.5576C18.4113 24.6451 18.2675 24.4912 18.1264 24.3334H30.8811C30.7834 24.2241 30.6871 24.113 30.592 24H47.75Z" fill="#565C73"/>
<path d="M33.75 27C35.412 27.6407 37.2781 28 39.25 28C41.2219 28 43.088 27.6407 44.75 27H33.75Z" fill="#565C73"/>
<path d="M17.75 1C16.346 0.352944 14.8306 0 13.25 0C11.6694 0 10.154 0.352944 8.75 1H17.75Z" fill="#565C73"/>
<path d="M8.75 27C10.154 27.6471 11.6694 28 13.25 28C14.8306 28 16.346 27.6471 17.75 27H8.75Z" fill="#565C73"/>
<path d="M26.75 0C28.5249 0 30.2149 0.356301 31.75 1H21.75C23.2851 0.356301 24.9751 0 26.75 0Z" fill="#565C73"/>
<path d="M26.75 28C24.9751 28 23.2851 27.6437 21.75 27H31.75C30.2149 27.6437 28.5249 28 26.75 28Z" fill="#565C73"/>
<path d="M167.75 30V25H168.326V30H167.75ZM169.973 30L168.113 27.5478V27.467L169.996 25H170.716L168.637 27.724L168.694 27.2908L170.75 30H169.973Z" fill="#565C73"/>
<path d="M163.75 30V25H165.281C165.566 25 165.815 25.0734 166.028 25.2202C166.244 25.3622 166.411 25.5555 166.529 25.8003C166.648 26.045 166.707 26.3191 166.707 26.6226C166.707 26.9261 166.648 27.2002 166.529 27.4449C166.411 27.6897 166.244 27.883 166.028 28.025C165.815 28.1669 165.566 28.2379 165.281 28.2379H164.252V27.5478H165.176C165.446 27.5478 165.662 27.467 165.826 27.3054C165.989 27.139 166.071 26.9114 166.071 26.6226C166.071 26.3143 165.989 26.0818 165.826 25.9251C165.662 25.7685 165.446 25.6902 165.176 25.6902H164.246L164.362 25.5213V30H163.75ZM166.076 30L165.103 27.9222H165.776L166.75 30H166.076Z" fill="#565C73"/>
<path d="M158.75 27.5C158.75 27.1381 158.811 26.8047 158.935 26.5C159.062 26.1953 159.239 25.931 159.466 25.7071C159.693 25.4833 159.958 25.3095 160.261 25.1857C160.568 25.0619 160.901 25 161.26 25C161.615 25 161.944 25.0619 162.246 25.1857C162.549 25.3095 162.811 25.4833 163.034 25.7071C163.261 25.931 163.435 26.1953 163.559 26.5C163.686 26.8047 163.75 27.1381 163.75 27.5C163.75 27.8571 163.686 28.1881 163.559 28.4929C163.435 28.7977 163.261 29.0643 163.034 29.2929C162.811 29.5167 162.549 29.6905 162.246 29.8143C161.944 29.9381 161.615 30 161.26 30C160.901 30 160.568 29.9381 160.261 29.8143C159.958 29.6905 159.693 29.5167 159.466 29.2929C159.239 29.0643 159.062 28.7977 158.935 28.4929C158.811 28.1881 158.75 27.8571 158.75 27.5ZM159.474 27.5C159.474 27.8477 159.551 28.1595 159.707 28.4357C159.863 28.7071 160.076 28.9215 160.346 29.0785C160.615 29.2357 160.92 29.3143 161.26 29.3143C161.601 29.3143 161.903 29.2357 162.169 29.0785C162.433 28.9215 162.641 28.7071 162.793 28.4357C162.949 28.1595 163.026 27.8477 163.026 27.5C163.026 27.1476 162.949 26.8357 162.793 26.5643C162.641 26.2929 162.433 26.0786 162.169 25.9215C161.903 25.7643 161.601 25.6857 161.26 25.6857C160.92 25.6857 160.615 25.7643 160.346 25.9215C160.076 26.0786 159.863 26.2929 159.707 26.5643C159.551 26.8357 159.474 27.1476 159.474 27.5Z" fill="#565C73"/>
<path d="M156.793 30L155.581 25.5433L155.433 25H156.067L157.305 29.6329L157.02 29.5595L158.095 25H158.75L157.551 30H156.793ZM153.948 30L152.75 25H153.404L154.48 29.5595L154.195 29.6329L155.433 25H156.067L155.918 25.5433L154.707 30H153.948Z" fill="#565C73"/>
<path d="M150.34 30V25.5506H151.086V30H150.34ZM148.75 25.6902V25H152.75V25.6902H148.75Z" fill="#565C73"/>
<path d="M145.33 27.8341V27.1439H147.323V27.8341H145.33ZM145.308 25.6902L145.475 25.4552V29.42L145.272 29.3025H147.75V30H144.75V25H147.75V25.6902H145.308Z" fill="#565C73"/>
<path d="M143.153 30L140.059 25.8076L140.453 25.6902V30H139.75V25H140.348L143.335 29.0456H143.048V25H143.75V30H143.153Z" fill="#565C73"/>
<path d="M109.75 8V20H113.75V8H109.75Z" fill="#565C73"/>
<path d="M110.285 1.55815C109.928 1.93023 109.75 2.4186 109.75 3.02324C109.75 3.61242 109.928 4.09303 110.285 4.46511C110.657 4.82172 111.145 5 111.75 5C112.355 5 112.836 4.82172 113.192 4.46511C113.564 4.09303 113.75 3.61242 113.75 3.02324C113.75 2.4186 113.564 1.93023 113.192 1.55815C112.836 1.18604 112.355 1 111.75 1C111.145 1 110.657 1.18604 110.285 1.55815Z" fill="#565C73"/>
<path d="M131.063 19.4239C131.926 19.808 132.846 20 133.825 20C134.753 20 135.582 19.833 136.312 19.4991C137.042 19.1651 137.614 18.6975 138.029 18.0964C138.443 17.4785 138.65 16.7688 138.65 15.9672C138.65 14.9319 138.319 14.1053 137.655 13.4875C137.009 12.8696 135.93 12.377 134.422 12.0097C133.526 11.7926 132.929 11.6005 132.631 11.4335C132.332 11.2666 132.182 11.0578 132.182 10.8074C132.182 10.5401 132.307 10.3398 132.556 10.2062C132.805 10.0725 133.103 10.0058 133.451 10.0058C134.098 10.0058 134.679 10.1227 135.192 10.3565C135.707 10.5903 136.146 10.8741 136.511 11.2081L138.75 9.27942C138.219 8.64482 137.547 8.11049 136.735 7.67629C135.922 7.22541 134.935 7 133.774 7C132.796 7 131.951 7.18365 131.237 7.55109C130.524 7.91846 129.977 8.41104 129.596 9.02888C129.214 9.63004 129.024 10.298 129.024 11.0328C129.024 12.0514 129.33 12.8696 129.944 13.4875C130.574 14.0886 131.528 14.5479 132.805 14.8651C133.501 15.0488 134.032 15.2075 134.397 15.3411C134.761 15.4747 135.01 15.6082 135.143 15.7418C135.276 15.8754 135.342 16.0424 135.342 16.2428C135.342 16.4766 135.226 16.677 134.994 16.8439C134.778 16.9942 134.488 17.0693 134.123 17.0693C133.51 17.0693 132.946 16.9441 132.431 16.6937C131.918 16.4432 131.378 16.0257 130.815 15.4413L128.75 17.4451C129.447 18.3802 130.218 19.0398 131.063 19.4239Z" fill="#565C73"/>
<path d="M152.75 20V7.31141H155.511L155.953 8.76042C156.115 8.61899 156.284 8.48193 156.458 8.34931C157.003 7.9341 157.6 7.60547 158.248 7.36328C158.896 7.12109 159.569 7 160.268 7C161.104 7 161.768 7.14706 162.263 7.44111C162.774 7.71788 163.158 8.10713 163.413 8.60879C163.452 8.67934 163.488 8.75134 163.523 8.82467C163.71 8.66039 163.904 8.50194 164.104 8.34931C164.649 7.9341 165.237 7.60547 165.869 7.36328C166.516 7.12109 167.189 7 167.889 7C168.724 7 169.397 7.14706 169.909 7.44111C170.42 7.71788 170.804 8.10713 171.059 8.60879C171.315 9.11045 171.494 9.68133 171.597 10.3214C171.699 10.9441 171.75 11.5928 171.75 12.2675V20H167.991V12.4751C167.991 11.7485 167.863 11.2728 167.607 11.0479C167.369 10.8057 167.062 10.6846 166.687 10.6846C166.141 10.6846 165.613 10.849 165.102 11.1776C164.743 11.396 164.409 11.6611 164.101 11.9732C164.103 12.0707 164.104 12.1688 164.104 12.2675V20H160.37V12.4751C160.37 11.7485 160.243 11.2728 159.987 11.0479C159.731 10.8057 159.416 10.6846 159.041 10.6846C158.512 10.6846 157.992 10.849 157.481 11.1776C157.123 11.3952 156.791 11.6593 156.484 11.9698V20H152.75Z" fill="#565C73"/>
<path d="M144.25 21C143.303 21 142.531 20.8616 141.934 20.5848C141.355 20.308 140.899 19.9275 140.566 19.4431C140.25 18.9414 140.031 18.3792 139.908 17.7565C139.802 17.1164 139.75 16.4417 139.75 15.7325V8H143.592V15.5249C143.592 16.2342 143.741 16.7099 144.04 16.9521C144.338 17.177 144.706 17.2894 145.145 17.2894C145.53 17.2894 145.908 17.2288 146.276 17.1077C146.644 16.9694 147.004 16.779 147.355 16.5369C147.54 16.3999 147.716 16.2485 147.882 16.0826V8H151.75V20.6886H148.881L148.429 19.2468C148.271 19.3839 148.105 19.5185 147.934 19.6506C147.39 20.0658 146.811 20.3945 146.197 20.6367C145.583 20.8789 144.934 21 144.25 21Z" fill="#565C73"/>
<path fill-rule="evenodd" clip-rule="evenodd" d="M122.827 20.3633C121.691 20.3633 120.704 20.1114 119.865 19.6078C119.815 19.5762 119.767 19.5439 119.718 19.5106C119.67 19.4778 119.623 19.4441 119.577 19.4097V25H115.75V7.31262H118.607L118.985 8.58114C119.265 8.28448 119.577 8.02658 119.918 7.80753C120.756 7.2692 121.734 7 122.853 7C124.023 7 125.046 7.28656 125.92 7.85966C126.811 8.41535 127.501 9.19681 127.99 10.204C128.497 11.2113 128.75 12.3748 128.75 13.6946C128.75 14.9971 128.497 16.1519 127.99 17.1592C127.483 18.1664 126.784 18.9566 125.894 19.5297C125.002 20.0853 123.98 20.3633 122.827 20.3633ZM122.119 16.7945C122.905 16.7945 123.552 16.508 124.059 15.9349C124.583 15.3444 124.845 14.5977 124.845 13.6946C124.845 12.7743 124.583 12.0275 124.059 11.4544C123.552 10.864 122.905 10.5687 122.119 10.5687C121.35 10.5687 120.704 10.864 120.179 11.4544C119.656 12.0275 119.393 12.7655 119.393 13.6686C119.393 14.589 119.656 15.3444 120.179 15.9349C120.704 16.508 121.35 16.7945 122.119 16.7945Z" fill="#565C73"/>
<path fill-rule="evenodd" clip-rule="evenodd" d="M102.225 20C100.943 20 99.8132 19.7296 98.8357 19.1891C97.8575 18.6315 97.0988 17.8628 96.559 16.883C96.0199 15.9031 95.75 14.7797 95.75 13.5126C95.75 12.2287 96.0199 11.0968 96.559 10.1169C97.0988 9.13709 97.8575 8.37688 98.8357 7.8363C99.8132 7.27877 100.943 7 102.225 7C103.523 7 104.661 7.27877 105.639 7.8363C106.617 8.37688 107.375 9.13709 107.915 10.1169C108.472 11.0968 108.75 12.2287 108.75 13.5126C108.75 14.7797 108.472 15.9031 107.915 16.883C107.375 17.8628 106.617 18.6315 105.639 19.1891C104.661 19.7296 103.523 20 102.225 20ZM102.225 16.4015C103.051 16.4015 103.717 16.1397 104.223 15.616C104.746 15.0754 105.006 14.3742 105.006 13.5126C105.006 12.6342 104.746 11.9246 104.223 11.384C103.717 10.8434 103.051 10.5731 102.225 10.5731C101.432 10.5731 100.775 10.8434 100.252 11.384C99.7461 11.9077 99.493 12.6088 99.493 13.4874C99.493 14.3658 99.7461 15.0754 100.252 15.616C100.775 16.1397 101.432 16.4015 102.225 16.4015Z" fill="#565C73"/>
<path fill-rule="evenodd" clip-rule="evenodd" d="M86.0658 24.6919C86.7809 24.8973 87.4781 25 88.1585 25C89.5361 25 90.7127 24.7347 91.6896 24.204C92.6833 23.6733 93.4419 22.8859 93.9654 21.8417C94.4882 20.7975 94.75 19.5392 94.75 18.067V7.30816H91.8987L91.4766 8.68465C91.1641 8.33099 90.8075 8.02623 90.4075 7.77038C89.6056 7.25677 88.6727 7 87.6089 7C86.4758 7 85.4641 7.26536 84.5746 7.79601C83.6852 8.30955 82.988 9.02854 82.4825 9.9529C81.9937 10.8602 81.75 11.913 81.75 13.1113C81.75 14.2924 82.0024 15.3452 82.5086 16.2697C83.0314 17.194 83.7293 17.913 84.6007 18.4265C85.4901 18.9401 86.5105 19.1969 87.661 19.1969C88.7421 19.1969 89.6757 18.9572 90.4603 18.4779C90.6246 18.376 90.7815 18.2655 90.9311 18.1462V18.8631C90.9311 19.873 90.678 20.6263 90.1725 21.1227C89.6663 21.6363 89.0126 21.893 88.2106 21.893C87.5128 21.893 86.9379 21.7475 86.4844 21.4565C86.0484 21.1655 85.6123 20.6862 85.1763 20.0186L82.4298 21.4051L82.6395 21.8417C83.0401 22.612 83.5369 23.2283 84.1299 23.6904C84.7229 24.1698 85.3679 24.5036 86.0658 24.6919ZM90.3555 15.1141C89.85 15.6449 89.1956 15.9102 88.3936 15.9102C87.5916 15.9102 86.9292 15.6449 86.4056 15.1141C85.9001 14.5835 85.6471 13.9158 85.6471 13.1113C85.6471 12.2725 85.9001 11.5877 86.4056 11.0571C86.9292 10.5264 87.5916 10.2611 88.3936 10.2611C89.1956 10.2611 89.85 10.5264 90.3555 11.0571C90.8783 11.5877 91.1401 12.2725 91.1401 13.1113C91.1401 13.9158 90.8783 14.5835 90.3555 15.1141Z" fill="#565C73"/>
<path fill-rule="evenodd" clip-rule="evenodd" d="M75.2248 20C73.9438 20 72.8139 19.7296 71.8357 19.1891C70.8581 18.6315 70.0995 17.8628 69.5597 16.883C69.0199 15.9031 68.75 14.7797 68.75 13.5126C68.75 12.2287 69.0199 11.0968 69.5597 10.1169C70.0995 9.13709 70.8581 8.37688 71.8357 7.8363C72.8139 7.27877 73.9438 7 75.2248 7C76.5233 7 77.6616 7.27877 78.6391 7.8363C79.6173 8.37688 80.376 9.13709 80.9158 10.1169C81.4717 11.0968 81.75 12.2287 81.75 13.5126C81.75 14.7797 81.4717 15.9031 80.9158 16.883C80.376 17.8628 79.6173 18.6315 78.6391 19.1891C77.6616 19.7296 76.5233 20 75.2248 20ZM75.2248 16.4015C76.0513 16.4015 76.717 16.1397 77.2232 15.616C77.7455 15.0754 78.007 14.3742 78.007 13.5126C78.007 12.6342 77.7455 11.9246 77.2232 11.384C76.717 10.8434 76.0513 10.5731 75.2248 10.5731C74.4326 10.5731 73.7746 10.8434 73.2523 11.384C72.7461 11.9077 72.4936 12.6088 72.4936 13.4874C72.4936 14.3658 72.7461 15.0754 73.2523 15.616C73.7746 16.1397 74.4326 16.4015 75.2248 16.4015Z" fill="#565C73"/>
<path d="M57.75 20H67.75V16.4802H61.2765V3H57.75V20Z" fill="#565C73"/>
</g>
<defs>
<clipPath id="clip0_33172_542">
<rect width="171" height="30" fill="white" transform="translate(0.75)"/>
</clipPath>
</defs>
</svg>
