<svg width="501" height="128" viewBox="0 0 501 128" fill="none" xmlns="http://www.w3.org/2000/svg">
<rect x="0.5" y="0.5" width="500" height="127" fill="white"/>
<rect x="0.5" y="0.5" width="500" height="127" stroke="#EDEDF1"/>
<path d="M25.3636 27C25.2386 26.6174 25.0739 26.2746 24.8693 25.9716C24.6686 25.6648 24.428 25.4034 24.1477 25.1875C23.8712 24.9716 23.5568 24.8068 23.2045 24.6932C22.8523 24.5795 22.4659 24.5227 22.0455 24.5227C21.3561 24.5227 20.7292 24.7008 20.1648 25.0568C19.6004 25.4129 19.1515 25.9375 18.8182 26.6307C18.4848 27.3239 18.3182 28.1742 18.3182 29.1818C18.3182 30.1894 18.4867 31.0398 18.8239 31.733C19.161 32.4261 19.6174 32.9508 20.1932 33.3068C20.7689 33.6629 21.4167 33.8409 22.1364 33.8409C22.803 33.8409 23.3902 33.6989 23.8977 33.4148C24.4091 33.1269 24.8068 32.7216 25.0909 32.1989C25.3788 31.6723 25.5227 31.053 25.5227 30.3409L25.9545 30.4318H22.4545V29.1818H26.8864V30.4318C26.8864 31.3902 26.6818 32.2235 26.2727 32.9318C25.8674 33.6402 25.3068 34.1894 24.5909 34.5795C23.8788 34.9659 23.0606 35.1591 22.1364 35.1591C21.1061 35.1591 20.2008 34.9167 19.4205 34.4318C18.6439 33.947 18.0379 33.2576 17.6023 32.3636C17.1705 31.4697 16.9545 30.4091 16.9545 29.1818C16.9545 28.2614 17.0777 27.4337 17.3239 26.6989C17.5739 25.9602 17.9261 25.3314 18.3807 24.8125C18.8352 24.2936 19.3731 23.8958 19.9943 23.6193C20.6155 23.3428 21.2992 23.2045 22.0455 23.2045C22.6591 23.2045 23.2311 23.2973 23.7614 23.483C24.2955 23.6648 24.7708 23.9242 25.1875 24.2614C25.608 24.5947 25.9583 24.9943 26.2386 25.4602C26.5189 25.9223 26.7121 26.4356 26.8182 27H25.3636ZM29.6648 35V26.2727H31.0057V35H29.6648ZM30.3466 24.8182C30.0852 24.8182 29.8598 24.7292 29.6705 24.5511C29.4848 24.3731 29.392 24.1591 29.392 23.9091C29.392 23.6591 29.4848 23.4451 29.6705 23.267C29.8598 23.089 30.0852 23 30.3466 23C30.608 23 30.8314 23.089 31.017 23.267C31.2064 23.4451 31.3011 23.6591 31.3011 23.9091C31.3011 24.1591 31.2064 24.3731 31.017 24.5511C30.8314 24.7292 30.608 24.8182 30.3466 24.8182ZM40.598 26.2727L37.3707 35H36.0071L32.7798 26.2727H34.2344L36.6435 33.2273H36.7344L39.1435 26.2727H40.598ZM45.7145 35.1818C44.8736 35.1818 44.1482 34.9962 43.5384 34.625C42.9323 34.25 42.4645 33.7273 42.1349 33.0568C41.8092 32.3826 41.6463 31.5985 41.6463 30.7045C41.6463 29.8106 41.8092 29.0227 42.1349 28.3409C42.4645 27.6553 42.9228 27.1212 43.5099 26.7386C44.1009 26.3523 44.7902 26.1591 45.5781 26.1591C46.0327 26.1591 46.4815 26.2348 46.9247 26.3864C47.3679 26.5379 47.7713 26.7841 48.1349 27.125C48.4986 27.4621 48.7884 27.9091 49.0043 28.4659C49.2202 29.0227 49.3281 29.7083 49.3281 30.5227V31.0909H42.6009V29.9318H47.9645C47.9645 29.4394 47.866 29 47.669 28.6136C47.4759 28.2273 47.1993 27.9223 46.8395 27.6989C46.4834 27.4754 46.063 27.3636 45.5781 27.3636C45.044 27.3636 44.5819 27.4962 44.1918 27.7614C43.8054 28.0227 43.508 28.3636 43.2997 28.7841C43.0914 29.2045 42.9872 29.6553 42.9872 30.1364V30.9091C42.9872 31.5682 43.1009 32.1269 43.3281 32.5852C43.5592 33.0398 43.8793 33.3864 44.2884 33.625C44.6974 33.8598 45.1728 33.9773 45.7145 33.9773C46.0668 33.9773 46.3849 33.928 46.669 33.8295C46.9569 33.7273 47.205 33.5758 47.4134 33.375C47.6217 33.1705 47.7827 32.9167 47.8963 32.6136L49.1918 32.9773C49.0554 33.4167 48.8262 33.803 48.5043 34.1364C48.1823 34.4659 47.7846 34.7235 47.3111 34.9091C46.8376 35.0909 46.3054 35.1818 45.7145 35.1818ZM61.3679 31.4318V26.2727H62.7088V35H61.3679V33.5227H61.277C61.0724 33.9659 60.7543 34.3428 60.3224 34.6534C59.8906 34.9602 59.3452 35.1136 58.6861 35.1136C58.1406 35.1136 57.6558 34.9943 57.2315 34.7557C56.8073 34.5133 56.474 34.1496 56.2315 33.6648C55.9891 33.1761 55.8679 32.5606 55.8679 31.8182V26.2727H57.2088V31.7273C57.2088 32.3636 57.3868 32.8712 57.7429 33.25C58.1027 33.6288 58.5611 33.8182 59.1179 33.8182C59.4512 33.8182 59.7902 33.733 60.1349 33.5625C60.4834 33.392 60.7751 33.1307 61.0099 32.7784C61.2486 32.4261 61.3679 31.9773 61.3679 31.4318ZM71.3466 28.2273L70.142 28.5682C70.0663 28.3674 69.9545 28.1723 69.8068 27.983C69.6629 27.7898 69.4659 27.6307 69.2159 27.5057C68.9659 27.3807 68.6458 27.3182 68.2557 27.3182C67.7216 27.3182 67.2765 27.4413 66.9205 27.6875C66.5682 27.9299 66.392 28.2386 66.392 28.6136C66.392 28.947 66.5133 29.2102 66.7557 29.4034C66.9981 29.5966 67.3769 29.7576 67.892 29.8864L69.1875 30.2045C69.9678 30.3939 70.5492 30.6837 70.9318 31.0739C71.3144 31.4602 71.5057 31.9583 71.5057 32.5682C71.5057 33.0682 71.3617 33.5152 71.0739 33.9091C70.7898 34.303 70.392 34.6136 69.8807 34.8409C69.3693 35.0682 68.7746 35.1818 68.0966 35.1818C67.2064 35.1818 66.4697 34.9886 65.8864 34.6023C65.303 34.2159 64.9337 33.6515 64.7784 32.9091L66.0511 32.5909C66.1723 33.0606 66.4015 33.4129 66.7386 33.6477C67.0795 33.8826 67.5246 34 68.0739 34C68.6989 34 69.1951 33.8674 69.5625 33.6023C69.9337 33.3333 70.1193 33.0114 70.1193 32.6364C70.1193 32.3333 70.0133 32.0795 69.8011 31.875C69.589 31.6667 69.2633 31.5114 68.8239 31.4091L67.3693 31.0682C66.5701 30.8788 65.983 30.5852 65.608 30.1875C65.2367 29.786 65.0511 29.2841 65.0511 28.6818C65.0511 28.1894 65.1894 27.7538 65.4659 27.375C65.7462 26.9962 66.1269 26.6989 66.608 26.483C67.0928 26.267 67.642 26.1591 68.2557 26.1591C69.1193 26.1591 69.7973 26.3485 70.2898 26.7273C70.786 27.1061 71.1383 27.6061 71.3466 28.2273ZM80.5923 35.2045C80.0393 35.2045 79.5374 35.1004 79.0866 34.892C78.6359 34.6799 78.2779 34.375 78.0128 33.9773C77.7476 33.5758 77.6151 33.0909 77.6151 32.5227C77.6151 32.0227 77.7135 31.6174 77.9105 31.3068C78.1075 30.9924 78.3707 30.7462 78.7003 30.5682C79.0298 30.3902 79.3935 30.2576 79.7912 30.1705C80.1927 30.0795 80.5961 30.0076 81.0014 29.9545C81.5317 29.8864 81.9616 29.8352 82.2912 29.8011C82.6245 29.7633 82.867 29.7008 83.0185 29.6136C83.1738 29.5265 83.2514 29.375 83.2514 29.1591V29.1136C83.2514 28.553 83.098 28.1174 82.7912 27.8068C82.4882 27.4962 82.0279 27.3409 81.4105 27.3409C80.7704 27.3409 80.2685 27.4811 79.9048 27.7614C79.5412 28.0417 79.2855 28.3409 79.1378 28.6591L77.8651 28.2045C78.0923 27.6742 78.3954 27.2614 78.7741 26.9659C79.1567 26.6667 79.5734 26.4583 80.0241 26.3409C80.4787 26.2197 80.9257 26.1591 81.3651 26.1591C81.6454 26.1591 81.9673 26.1932 82.331 26.2614C82.6984 26.3258 83.0526 26.4602 83.3935 26.6648C83.7382 26.8693 84.0241 27.178 84.2514 27.5909C84.4787 28.0038 84.5923 28.5568 84.5923 29.25V35H83.2514V33.8182H83.1832C83.0923 34.0076 82.9408 34.2102 82.7287 34.4261C82.5166 34.642 82.2344 34.8258 81.8821 34.9773C81.5298 35.1288 81.0999 35.2045 80.5923 35.2045ZM80.7969 34C81.3272 34 81.7741 33.8958 82.1378 33.6875C82.5052 33.4792 82.7817 33.2102 82.9673 32.8807C83.1567 32.5511 83.2514 32.2045 83.2514 31.8409V30.6136C83.1946 30.6818 83.0696 30.7443 82.8764 30.8011C82.687 30.8542 82.4673 30.9015 82.2173 30.9432C81.9711 30.9811 81.7306 31.0152 81.4957 31.0455C81.2647 31.072 81.0772 31.0947 80.9332 31.1136C80.5848 31.1591 80.259 31.233 79.956 31.3352C79.6567 31.4337 79.4143 31.5833 79.2287 31.7841C79.0469 31.9811 78.956 32.25 78.956 32.5909C78.956 33.0568 79.1283 33.4091 79.473 33.6477C79.8215 33.8826 80.2628 34 80.7969 34ZM91.5398 38.2727V26.2727H92.8352V27.6591H92.9943C93.0928 27.5076 93.2292 27.3144 93.4034 27.0795C93.5814 26.8409 93.8352 26.6288 94.1648 26.4432C94.4981 26.2538 94.9489 26.1591 95.517 26.1591C96.2519 26.1591 96.8996 26.3428 97.4602 26.7102C98.0208 27.0777 98.4583 27.5985 98.7727 28.2727C99.0871 28.947 99.2443 29.7424 99.2443 30.6591C99.2443 31.5833 99.0871 32.3845 98.7727 33.0625C98.4583 33.7367 98.0227 34.2595 97.4659 34.6307C96.9091 34.9981 96.267 35.1818 95.5398 35.1818C94.9792 35.1818 94.5303 35.089 94.1932 34.9034C93.8561 34.714 93.5966 34.5 93.4148 34.2614C93.233 34.0189 93.0928 33.8182 92.9943 33.6591H92.8807V38.2727H91.5398ZM92.858 30.6364C92.858 31.2955 92.9545 31.8769 93.1477 32.3807C93.3409 32.8807 93.6231 33.2727 93.9943 33.5568C94.3655 33.8371 94.8201 33.9773 95.358 33.9773C95.9186 33.9773 96.3864 33.8295 96.7614 33.5341C97.1402 33.2348 97.4242 32.8333 97.6136 32.3295C97.8068 31.822 97.9034 31.2576 97.9034 30.6364C97.9034 30.0227 97.8087 29.4697 97.6193 28.9773C97.4337 28.4811 97.1515 28.089 96.7727 27.8011C96.3977 27.5095 95.9261 27.3636 95.358 27.3636C94.8125 27.3636 94.3542 27.5019 93.983 27.7784C93.6117 28.0511 93.3314 28.4337 93.142 28.9261C92.9527 29.4148 92.858 29.9848 92.858 30.6364ZM101.29 35V26.2727H102.585V27.5909H102.676C102.835 27.1591 103.123 26.8087 103.54 26.5398C103.956 26.2708 104.426 26.1364 104.949 26.1364C105.047 26.1364 105.17 26.1383 105.318 26.142C105.466 26.1458 105.578 26.1515 105.653 26.1591V27.5227C105.608 27.5114 105.504 27.4943 105.341 27.4716C105.182 27.4451 105.013 27.4318 104.835 27.4318C104.411 27.4318 104.032 27.5208 103.699 27.6989C103.369 27.8731 103.108 28.1155 102.915 28.4261C102.725 28.733 102.631 29.0833 102.631 29.4773V35H101.29ZM110.523 35.1818C109.735 35.1818 109.044 34.9943 108.449 34.6193C107.858 34.2443 107.396 33.7197 107.062 33.0455C106.733 32.3712 106.568 31.5833 106.568 30.6818C106.568 29.7727 106.733 28.9792 107.062 28.3011C107.396 27.6231 107.858 27.0966 108.449 26.7216C109.044 26.3466 109.735 26.1591 110.523 26.1591C111.311 26.1591 112 26.3466 112.591 26.7216C113.186 27.0966 113.648 27.6231 113.977 28.3011C114.311 28.9792 114.477 29.7727 114.477 30.6818C114.477 31.5833 114.311 32.3712 113.977 33.0455C113.648 33.7197 113.186 34.2443 112.591 34.6193C112 34.9943 111.311 35.1818 110.523 35.1818ZM110.523 33.9773C111.121 33.9773 111.614 33.8239 112 33.517C112.386 33.2102 112.672 32.8068 112.858 32.3068C113.044 31.8068 113.136 31.2652 113.136 30.6818C113.136 30.0985 113.044 29.5549 112.858 29.0511C112.672 28.5473 112.386 28.1402 112 27.8295C111.614 27.5189 111.121 27.3636 110.523 27.3636C109.924 27.3636 109.432 27.5189 109.045 27.8295C108.659 28.1402 108.373 28.5473 108.188 29.0511C108.002 29.5549 107.909 30.0985 107.909 30.6818C107.909 31.2652 108.002 31.8068 108.188 32.3068C108.373 32.8068 108.659 33.2102 109.045 33.517C109.432 33.8239 109.924 33.9773 110.523 33.9773ZM116.524 35V26.2727H117.82V27.6364H117.933C118.115 27.1705 118.409 26.8087 118.814 26.5511C119.219 26.2898 119.706 26.1591 120.274 26.1591C120.85 26.1591 121.329 26.2898 121.712 26.5511C122.098 26.8087 122.399 27.1705 122.615 27.6364H122.706C122.929 27.1856 123.265 26.8277 123.712 26.5625C124.159 26.2936 124.695 26.1591 125.32 26.1591C126.1 26.1591 126.738 26.4034 127.234 26.892C127.731 27.3769 127.979 28.1326 127.979 29.1591V35H126.638V29.1591C126.638 28.5152 126.462 28.0549 126.109 27.7784C125.757 27.5019 125.342 27.3636 124.865 27.3636C124.251 27.3636 123.776 27.5492 123.439 27.9205C123.102 28.2879 122.933 28.7538 122.933 29.3182V35H121.57V29.0227C121.57 28.5265 121.409 28.1269 121.087 27.8239C120.765 27.517 120.35 27.3636 119.842 27.3636C119.494 27.3636 119.168 27.4564 118.865 27.642C118.566 27.8277 118.323 28.0852 118.138 28.4148C117.956 28.7405 117.865 29.1174 117.865 29.5455V35H116.524ZM130.43 38.2727V26.2727H131.726V27.6591H131.885C131.983 27.5076 132.12 27.3144 132.294 27.0795C132.472 26.8409 132.726 26.6288 133.055 26.4432C133.389 26.2538 133.839 26.1591 134.408 26.1591C135.143 26.1591 135.79 26.3428 136.351 26.7102C136.911 27.0777 137.349 27.5985 137.663 28.2727C137.978 28.947 138.135 29.7424 138.135 30.6591C138.135 31.5833 137.978 32.3845 137.663 33.0625C137.349 33.7367 136.913 34.2595 136.357 34.6307C135.8 34.9981 135.158 35.1818 134.43 35.1818C133.87 35.1818 133.421 35.089 133.084 34.9034C132.747 34.714 132.487 34.5 132.305 34.2614C132.124 34.0189 131.983 33.8182 131.885 33.6591H131.771V38.2727H130.43ZM131.749 30.6364C131.749 31.2955 131.845 31.8769 132.038 32.3807C132.232 32.8807 132.514 33.2727 132.885 33.5568C133.256 33.8371 133.711 33.9773 134.249 33.9773C134.809 33.9773 135.277 33.8295 135.652 33.5341C136.031 33.2348 136.315 32.8333 136.504 32.3295C136.697 31.822 136.794 31.2576 136.794 30.6364C136.794 30.0227 136.699 29.4697 136.51 28.9773C136.324 28.4811 136.042 28.089 135.663 27.8011C135.288 27.5095 134.817 27.3636 134.249 27.3636C133.703 27.3636 133.245 27.5019 132.874 27.7784C132.502 28.0511 132.222 28.4337 132.033 28.9261C131.843 29.4148 131.749 29.9848 131.749 30.6364ZM143.976 26.2727V27.4091H139.453V26.2727H143.976ZM140.771 24.1818H142.112V32.5C142.112 32.8788 142.167 33.1629 142.277 33.3523C142.391 33.5379 142.535 33.6629 142.709 33.7273C142.887 33.7879 143.074 33.8182 143.271 33.8182C143.419 33.8182 143.54 33.8106 143.635 33.7955C143.73 33.7765 143.805 33.7614 143.862 33.75L144.135 34.9545C144.044 34.9886 143.917 35.0227 143.754 35.0568C143.591 35.0947 143.385 35.1136 143.135 35.1136C142.756 35.1136 142.385 35.0322 142.021 34.8693C141.661 34.7064 141.362 34.4583 141.124 34.125C140.889 33.7917 140.771 33.3712 140.771 32.8636V24.1818ZM147.993 33.4091L147.902 34.0227C147.838 34.4545 147.739 34.9167 147.607 35.4091C147.478 35.9015 147.343 36.3655 147.203 36.8011C147.063 37.2367 146.947 37.5833 146.857 37.8409H145.834C145.883 37.5985 145.947 37.2784 146.027 36.8807C146.107 36.483 146.186 36.0379 146.266 35.5455C146.349 35.0568 146.417 34.5568 146.47 34.0455L146.538 33.4091H147.993ZM156.955 35L154.295 26.2727H155.705L157.591 32.9545H157.682L159.545 26.2727H160.977L162.818 32.9318H162.909L164.795 26.2727H166.205L163.545 35H162.227L160.318 28.2955H160.182L158.273 35H156.955ZM171.339 35.1818C170.499 35.1818 169.773 34.9962 169.163 34.625C168.557 34.25 168.089 33.7273 167.76 33.0568C167.434 32.3826 167.271 31.5985 167.271 30.7045C167.271 29.8106 167.434 29.0227 167.76 28.3409C168.089 27.6553 168.548 27.1212 169.135 26.7386C169.726 26.3523 170.415 26.1591 171.203 26.1591C171.658 26.1591 172.107 26.2348 172.55 26.3864C172.993 26.5379 173.396 26.7841 173.76 27.125C174.124 27.4621 174.413 27.9091 174.629 28.4659C174.845 29.0227 174.953 29.7083 174.953 30.5227V31.0909H168.226V29.9318H173.589C173.589 29.4394 173.491 29 173.294 28.6136C173.101 28.2273 172.824 27.9223 172.464 27.6989C172.108 27.4754 171.688 27.3636 171.203 27.3636C170.669 27.3636 170.207 27.4962 169.817 27.7614C169.43 28.0227 169.133 28.3636 168.925 28.7841C168.716 29.2045 168.612 29.6553 168.612 30.1364V30.9091C168.612 31.5682 168.726 32.1269 168.953 32.5852C169.184 33.0398 169.504 33.3864 169.913 33.625C170.322 33.8598 170.798 33.9773 171.339 33.9773C171.692 33.9773 172.01 33.928 172.294 33.8295C172.582 33.7273 172.83 33.5758 173.038 33.375C173.247 33.1705 173.408 32.9167 173.521 32.6136L174.817 32.9773C174.68 33.4167 174.451 33.803 174.129 34.1364C173.807 34.4659 173.41 34.7235 172.936 34.9091C172.463 35.0909 171.93 35.1818 171.339 35.1818ZM178.175 23.3636V24.3864C178.175 24.697 178.118 25.0284 178.004 25.3807C177.894 25.7292 177.732 26.0682 177.516 26.3977C177.304 26.7235 177.046 27.0076 176.743 27.25L176.016 26.6591C176.254 26.3182 176.461 25.964 176.635 25.5966C176.813 25.2254 176.902 24.8295 176.902 24.4091V23.3636H178.175ZM181.287 23.3636V35H179.946V23.3636H181.287ZM185.084 23.3636V35H183.743V23.3636H185.084ZM195.585 35.1818C194.767 35.1818 194.063 34.9886 193.472 34.6023C192.881 34.2159 192.426 33.6837 192.108 33.0057C191.79 32.3277 191.631 31.553 191.631 30.6818C191.631 29.7955 191.794 29.0133 192.119 28.3352C192.449 27.6534 192.907 27.1212 193.494 26.7386C194.085 26.3523 194.775 26.1591 195.562 26.1591C196.176 26.1591 196.729 26.2727 197.222 26.5C197.714 26.7273 198.117 27.0455 198.432 27.4545C198.746 27.8636 198.941 28.3409 199.017 28.8864H197.676C197.574 28.4886 197.347 28.1364 196.994 27.8295C196.646 27.5189 196.176 27.3636 195.585 27.3636C195.063 27.3636 194.604 27.5 194.21 27.7727C193.82 28.0417 193.515 28.4223 193.295 28.9148C193.08 29.4034 192.972 29.9773 192.972 30.6364C192.972 31.3106 193.078 31.8977 193.29 32.3977C193.506 32.8977 193.809 33.286 194.199 33.5625C194.593 33.839 195.055 33.9773 195.585 33.9773C195.934 33.9773 196.25 33.9167 196.534 33.7955C196.818 33.6742 197.059 33.5 197.256 33.2727C197.453 33.0455 197.593 32.7727 197.676 32.4545H199.017C198.941 32.9697 198.754 33.4337 198.455 33.8466C198.159 34.2557 197.767 34.5814 197.278 34.8239C196.794 35.0625 196.229 35.1818 195.585 35.1818ZM200.977 35V26.2727H202.273V27.5909H202.364C202.523 27.1591 202.811 26.8087 203.227 26.5398C203.644 26.2708 204.114 26.1364 204.636 26.1364C204.735 26.1364 204.858 26.1383 205.006 26.142C205.153 26.1458 205.265 26.1515 205.341 26.1591V27.5227C205.295 27.5114 205.191 27.4943 205.028 27.4716C204.869 27.4451 204.701 27.4318 204.523 27.4318C204.098 27.4318 203.72 27.5208 203.386 27.6989C203.057 27.8731 202.795 28.1155 202.602 28.4261C202.413 28.733 202.318 29.0833 202.318 29.4773V35H200.977ZM209.499 35.2045C208.946 35.2045 208.444 35.1004 207.993 34.892C207.542 34.6799 207.184 34.375 206.919 33.9773C206.654 33.5758 206.521 33.0909 206.521 32.5227C206.521 32.0227 206.62 31.6174 206.817 31.3068C207.014 30.9924 207.277 30.7462 207.607 30.5682C207.936 30.3902 208.3 30.2576 208.697 30.1705C209.099 30.0795 209.502 30.0076 209.908 29.9545C210.438 29.8864 210.868 29.8352 211.197 29.8011C211.531 29.7633 211.773 29.7008 211.925 29.6136C212.08 29.5265 212.158 29.375 212.158 29.1591V29.1136C212.158 28.553 212.004 28.1174 211.697 27.8068C211.394 27.4962 210.934 27.3409 210.317 27.3409C209.677 27.3409 209.175 27.4811 208.811 27.7614C208.447 28.0417 208.192 28.3409 208.044 28.6591L206.771 28.2045C206.999 27.6742 207.302 27.2614 207.68 26.9659C208.063 26.6667 208.48 26.4583 208.93 26.3409C209.385 26.2197 209.832 26.1591 210.271 26.1591C210.552 26.1591 210.874 26.1932 211.237 26.2614C211.605 26.3258 211.959 26.4602 212.3 26.6648C212.644 26.8693 212.93 27.178 213.158 27.5909C213.385 28.0038 213.499 28.5568 213.499 29.25V35H212.158V33.8182H212.089C211.999 34.0076 211.847 34.2102 211.635 34.4261C211.423 34.642 211.141 34.8258 210.788 34.9773C210.436 35.1288 210.006 35.2045 209.499 35.2045ZM209.703 34C210.233 34 210.68 33.8958 211.044 33.6875C211.411 33.4792 211.688 33.2102 211.874 32.8807C212.063 32.5511 212.158 32.2045 212.158 31.8409V30.6136C212.101 30.6818 211.976 30.7443 211.783 30.8011C211.593 30.8542 211.374 30.9015 211.124 30.9432C210.877 30.9811 210.637 31.0152 210.402 31.0455C210.171 31.072 209.983 31.0947 209.839 31.1136C209.491 31.1591 209.165 31.233 208.862 31.3352C208.563 31.4337 208.321 31.5833 208.135 31.7841C207.953 31.9811 207.862 32.25 207.862 32.5909C207.862 33.0568 208.035 33.4091 208.379 33.6477C208.728 33.8826 209.169 34 209.703 34ZM219.832 26.2727V27.4091H215.128V26.2727H219.832ZM216.537 35V25.0682C216.537 24.5682 216.654 24.1515 216.889 23.8182C217.124 23.4848 217.429 23.2348 217.804 23.0682C218.179 22.9015 218.575 22.8182 218.991 22.8182C219.321 22.8182 219.59 22.8447 219.798 22.8977C220.007 22.9508 220.162 23 220.264 23.0455L219.878 24.2045C219.81 24.1818 219.715 24.1534 219.594 24.1193C219.476 24.0852 219.321 24.0682 219.128 24.0682C218.685 24.0682 218.365 24.1799 218.168 24.4034C217.974 24.6269 217.878 24.9545 217.878 25.3864V35H216.537ZM225.507 26.2727V27.4091H220.984V26.2727H225.507ZM222.303 24.1818H223.643V32.5C223.643 32.8788 223.698 33.1629 223.808 33.3523C223.922 33.5379 224.066 33.6629 224.24 33.7273C224.418 33.7879 224.606 33.8182 224.803 33.8182C224.95 33.8182 225.071 33.8106 225.166 33.7955C225.261 33.7765 225.337 33.7614 225.393 33.75L225.666 34.9545C225.575 34.9886 225.448 35.0227 225.286 35.0568C225.123 35.0947 224.916 35.1136 224.666 35.1136C224.287 35.1136 223.916 35.0322 223.553 34.8693C223.193 34.7064 222.893 34.4583 222.655 34.125C222.42 33.7917 222.303 33.3712 222.303 32.8636V24.1818ZM235.82 26.2727V27.4091H231.297V26.2727H235.82ZM232.615 24.1818H233.956V32.5C233.956 32.8788 234.011 33.1629 234.121 33.3523C234.234 33.5379 234.378 33.6629 234.553 33.7273C234.731 33.7879 234.918 33.8182 235.115 33.8182C235.263 33.8182 235.384 33.8106 235.479 33.7955C235.573 33.7765 235.649 33.7614 235.706 33.75L235.979 34.9545C235.888 34.9886 235.761 35.0227 235.598 35.0568C235.435 35.0947 235.229 35.1136 234.979 35.1136C234.6 35.1136 234.229 35.0322 233.865 34.8693C233.505 34.7064 233.206 34.4583 232.967 34.125C232.732 33.7917 232.615 33.3712 232.615 32.8636V24.1818ZM239.365 29.75V35H238.024V23.3636H239.365V27.6364H239.479C239.683 27.1856 239.99 26.8277 240.399 26.5625C240.812 26.2936 241.361 26.1591 242.047 26.1591C242.642 26.1591 243.162 26.2784 243.609 26.517C244.056 26.7519 244.403 27.1136 244.649 27.6023C244.899 28.0871 245.024 28.7045 245.024 29.4545V35H243.683V29.5455C243.683 28.8523 243.503 28.3163 243.143 27.9375C242.787 27.5549 242.293 27.3636 241.661 27.3636C241.221 27.3636 240.827 27.4564 240.479 27.642C240.134 27.8277 239.861 28.0985 239.661 28.4545C239.464 28.8106 239.365 29.2424 239.365 29.75ZM251.136 35.1818C250.295 35.1818 249.57 34.9962 248.96 34.625C248.354 34.25 247.886 33.7273 247.557 33.0568C247.231 32.3826 247.068 31.5985 247.068 30.7045C247.068 29.8106 247.231 29.0227 247.557 28.3409C247.886 27.6553 248.345 27.1212 248.932 26.7386C249.523 26.3523 250.212 26.1591 251 26.1591C251.455 26.1591 251.903 26.2348 252.347 26.3864C252.79 26.5379 253.193 26.7841 253.557 27.125C253.92 27.4621 254.21 27.9091 254.426 28.4659C254.642 29.0227 254.75 29.7083 254.75 30.5227V31.0909H248.023V29.9318H253.386C253.386 29.4394 253.288 29 253.091 28.6136C252.898 28.2273 252.621 27.9223 252.261 27.6989C251.905 27.4754 251.485 27.3636 251 27.3636C250.466 27.3636 250.004 27.4962 249.614 27.7614C249.227 28.0227 248.93 28.3636 248.722 28.7841C248.513 29.2045 248.409 29.6553 248.409 30.1364V30.9091C248.409 31.5682 248.523 32.1269 248.75 32.5852C248.981 33.0398 249.301 33.3864 249.71 33.625C250.119 33.8598 250.595 33.9773 251.136 33.9773C251.489 33.9773 251.807 33.928 252.091 33.8295C252.379 33.7273 252.627 33.5758 252.835 33.375C253.044 33.1705 253.205 32.9167 253.318 32.6136L254.614 32.9773C254.477 33.4167 254.248 33.803 253.926 34.1364C253.604 34.4659 253.206 34.7235 252.733 34.9091C252.259 35.0909 251.727 35.1818 251.136 35.1818ZM264.835 35.1818C264.017 35.1818 263.313 34.9886 262.722 34.6023C262.131 34.2159 261.676 33.6837 261.358 33.0057C261.04 32.3277 260.881 31.553 260.881 30.6818C260.881 29.7955 261.044 29.0133 261.369 28.3352C261.699 27.6534 262.157 27.1212 262.744 26.7386C263.335 26.3523 264.025 26.1591 264.812 26.1591C265.426 26.1591 265.979 26.2727 266.472 26.5C266.964 26.7273 267.367 27.0455 267.682 27.4545C267.996 27.8636 268.191 28.3409 268.267 28.8864H266.926C266.824 28.4886 266.597 28.1364 266.244 27.8295C265.896 27.5189 265.426 27.3636 264.835 27.3636C264.313 27.3636 263.854 27.5 263.46 27.7727C263.07 28.0417 262.765 28.4223 262.545 28.9148C262.33 29.4034 262.222 29.9773 262.222 30.6364C262.222 31.3106 262.328 31.8977 262.54 32.3977C262.756 32.8977 263.059 33.286 263.449 33.5625C263.843 33.839 264.305 33.9773 264.835 33.9773C265.184 33.9773 265.5 33.9167 265.784 33.7955C266.068 33.6742 266.309 33.5 266.506 33.2727C266.703 33.0455 266.843 32.7727 266.926 32.4545H268.267C268.191 32.9697 268.004 33.4337 267.705 33.8466C267.409 34.2557 267.017 34.5814 266.528 34.8239C266.044 35.0625 265.479 35.1818 264.835 35.1818ZM273.773 35.1818C272.985 35.1818 272.294 34.9943 271.699 34.6193C271.108 34.2443 270.646 33.7197 270.312 33.0455C269.983 32.3712 269.818 31.5833 269.818 30.6818C269.818 29.7727 269.983 28.9792 270.312 28.3011C270.646 27.6231 271.108 27.0966 271.699 26.7216C272.294 26.3466 272.985 26.1591 273.773 26.1591C274.561 26.1591 275.25 26.3466 275.841 26.7216C276.436 27.0966 276.898 27.6231 277.227 28.3011C277.561 28.9792 277.727 29.7727 277.727 30.6818C277.727 31.5833 277.561 32.3712 277.227 33.0455C276.898 33.7197 276.436 34.2443 275.841 34.6193C275.25 34.9943 274.561 35.1818 273.773 35.1818ZM273.773 33.9773C274.371 33.9773 274.864 33.8239 275.25 33.517C275.636 33.2102 275.922 32.8068 276.108 32.3068C276.294 31.8068 276.386 31.2652 276.386 30.6818C276.386 30.0985 276.294 29.5549 276.108 29.0511C275.922 28.5473 275.636 28.1402 275.25 27.8295C274.864 27.5189 274.371 27.3636 273.773 27.3636C273.174 27.3636 272.682 27.5189 272.295 27.8295C271.909 28.1402 271.623 28.5473 271.438 29.0511C271.252 29.5549 271.159 30.0985 271.159 30.6818C271.159 31.2652 271.252 31.8068 271.438 32.3068C271.623 32.8068 271.909 33.2102 272.295 33.517C272.682 33.8239 273.174 33.9773 273.773 33.9773ZM279.774 38.2727V26.2727H281.07V27.6591H281.229C281.327 27.5076 281.464 27.3144 281.638 27.0795C281.816 26.8409 282.07 26.6288 282.399 26.4432C282.732 26.2538 283.183 26.1591 283.751 26.1591C284.486 26.1591 285.134 26.3428 285.695 26.7102C286.255 27.0777 286.693 27.5985 287.007 28.2727C287.321 28.947 287.479 29.7424 287.479 30.6591C287.479 31.5833 287.321 32.3845 287.007 33.0625C286.693 33.7367 286.257 34.2595 285.7 34.6307C285.143 34.9981 284.501 35.1818 283.774 35.1818C283.214 35.1818 282.765 35.089 282.428 34.9034C282.09 34.714 281.831 34.5 281.649 34.2614C281.467 34.0189 281.327 33.8182 281.229 33.6591H281.115V38.2727H279.774ZM281.092 30.6364C281.092 31.2955 281.189 31.8769 281.382 32.3807C281.575 32.8807 281.857 33.2727 282.229 33.5568C282.6 33.8371 283.054 33.9773 283.592 33.9773C284.153 33.9773 284.621 33.8295 284.996 33.5341C285.375 33.2348 285.659 32.8333 285.848 32.3295C286.041 31.822 286.138 31.2576 286.138 30.6364C286.138 30.0227 286.043 29.4697 285.854 28.9773C285.668 28.4811 285.386 28.089 285.007 27.8011C284.632 27.5095 284.161 27.3636 283.592 27.3636C283.047 27.3636 282.589 27.5019 282.217 27.7784C281.846 28.0511 281.566 28.4337 281.376 28.9261C281.187 29.4148 281.092 29.9848 281.092 30.6364ZM290.075 38.2727C289.848 38.2727 289.645 38.2538 289.467 38.2159C289.289 38.1818 289.166 38.1477 289.098 38.1136L289.439 36.9318C289.765 37.0152 290.053 37.0455 290.303 37.0227C290.553 37 290.774 36.8883 290.967 36.6875C291.164 36.4905 291.344 36.1705 291.507 35.7273L291.757 35.0455L288.53 26.2727H289.984L292.393 33.2273H292.484L294.893 26.2727H296.348L292.643 36.2727C292.477 36.7235 292.27 37.0966 292.024 37.392C291.778 37.6913 291.492 37.9129 291.166 38.0568C290.844 38.2008 290.481 38.2727 290.075 38.2727Z" fill="#8A92A6"/>
<path d="M26.8359 85.0832V85.4998C26.8359 87.8569 26.8359 89.0354 27.5682 89.7676C28.3004 90.4998 29.4789 90.4998 31.8359 90.4998H32.2526M32.6693 91.8806V94.6665C32.6693 97.8092 32.6693 99.3806 31.6929 100.357C30.7167 101.333 29.1453 101.333 26.0026 101.333C22.8599 101.333 21.2886 101.333 20.3122 100.357C19.3359 99.3806 19.3359 97.8092 19.3359 94.6665V90.8797C19.3359 88.1755 19.3359 86.8234 20.0743 85.9076C20.2235 85.7226 20.392 85.5541 20.577 85.4049C21.4929 84.6665 22.845 84.6665 25.5491 84.6665C26.1371 84.6665 26.431 84.6665 26.7003 84.7615C26.7563 84.7813 26.8111 84.804 26.8647 84.8296C27.1223 84.9528 27.3301 85.1607 27.7459 85.5764L31.6929 89.5235C32.1747 90.0052 32.4155 90.2461 32.5424 90.5524C32.6693 90.8587 32.6693 91.1993 32.6693 91.8806Z" stroke="#24252D" stroke-width="1.25" stroke-linecap="round" stroke-linejoin="round"/>
<path d="M59.9141 95.0832L64.0807 90.9165" stroke="#24252D" stroke-width="1.25" stroke-linecap="round"/>
<path d="M66.0386 95.1746L68.2132 93C69.9289 91.2843 69.9289 88.5025 68.2132 86.7868C66.4975 85.0711 63.7157 85.0711 62 86.7868L59.8254 88.9614M64.1746 97.0386L62 99.2132C60.2843 100.929 57.5025 100.929 55.7868 99.2132C54.0711 97.4975 54.0711 94.7157 55.7868 93L57.9614 90.8254" stroke="#24252D" stroke-width="1.25" stroke-linecap="round"/>
<rect x="88.5" y="74.5" width="152" height="37" rx="7.5" fill="white"/>
<rect x="88.5" y="74.5" width="152" height="37" rx="7.5" stroke="#D6D8E1"/>
<path d="M112.12 84.6665V86.7384C112.12 88.195 112.12 88.9233 112.298 89.6225C112.476 90.3216 112.826 90.9636 113.525 92.2476L114.472 93.9875C116.253 97.2594 117.144 98.8954 116.413 100.108L116.402 100.127C115.661 101.333 113.775 101.333 110.003 101.333C106.231 101.333 104.345 101.333 103.603 100.127L103.592 100.108C102.861 98.8954 103.752 97.2594 105.533 93.9875L106.48 92.2476C107.179 90.9636 107.529 90.3216 107.707 89.6225C107.885 88.9233 107.885 88.195 107.885 86.7384V84.6665" stroke="#24252D" stroke-width="1.25"/>
<path d="M107.5 96.3348L107.507 96.333" stroke="#24252D" stroke-width="1.66667" stroke-linecap="round" stroke-linejoin="round"/>
<path d="M112.5 98.0013L112.507 97.9995" stroke="#24252D" stroke-width="1.66667" stroke-linecap="round" stroke-linejoin="round"/>
<path d="M106.664 84.6665H113.331" stroke="#24252D" stroke-width="1.25" stroke-linecap="round" stroke-linejoin="round"/>
<path d="M106.25 92.63C107.083 91.6689 108.416 92.3617 110 93.2649C112.083 94.453 113.333 93.5414 113.75 92.6791" stroke="#24252D" stroke-width="1.25" stroke-linecap="round"/>
<path d="M132.375 98H129.233V87.8182H132.514C133.502 87.8182 134.347 88.022 135.05 88.4297C135.752 88.834 136.291 89.4157 136.665 90.1747C137.04 90.9304 137.227 91.8352 137.227 92.8892C137.227 93.9498 137.038 94.8629 136.661 95.6286C136.283 96.3909 135.732 96.9775 135.01 97.3885C134.287 97.7962 133.409 98 132.375 98ZM130.466 96.9062H132.295C133.137 96.9062 133.835 96.7438 134.388 96.419C134.942 96.0942 135.355 95.6319 135.626 95.032C135.898 94.4321 136.034 93.7178 136.034 92.8892C136.034 92.0672 135.9 91.3596 135.631 90.7663C135.363 90.1697 134.962 89.7124 134.428 89.3942C133.895 89.0727 133.23 88.9119 132.435 88.9119H130.466V96.9062ZM142.338 98.1591C141.602 98.1591 140.968 97.9967 140.434 97.6719C139.904 97.3438 139.494 96.8864 139.206 96.2997C138.921 95.7098 138.778 95.0237 138.778 94.2415C138.778 93.4593 138.921 92.7699 139.206 92.1733C139.494 91.5734 139.895 91.1061 140.409 90.7713C140.926 90.4332 141.529 90.2642 142.219 90.2642C142.616 90.2642 143.009 90.3305 143.397 90.4631C143.785 90.5956 144.138 90.8111 144.456 91.1094C144.774 91.4044 145.028 91.7955 145.217 92.2827C145.406 92.7699 145.5 93.3698 145.5 94.0824V94.5795H139.614V93.5653H144.307C144.307 93.1345 144.221 92.75 144.048 92.4119C143.879 92.0739 143.637 91.8071 143.322 91.6115C143.011 91.416 142.643 91.3182 142.219 91.3182C141.751 91.3182 141.347 91.4342 141.006 91.6662C140.668 91.8949 140.407 92.1932 140.225 92.5611C140.043 92.929 139.952 93.3234 139.952 93.7443V94.4205C139.952 94.9972 140.051 95.486 140.25 95.8871C140.452 96.2848 140.732 96.5881 141.09 96.7969C141.448 97.0024 141.864 97.1051 142.338 97.1051C142.646 97.1051 142.925 97.062 143.173 96.9759C143.425 96.8864 143.642 96.7538 143.825 96.5781C144.007 96.3991 144.148 96.1771 144.247 95.9119L145.381 96.2301C145.261 96.6146 145.061 96.9527 144.779 97.2443C144.497 97.5327 144.149 97.758 143.735 97.9205C143.321 98.0795 142.855 98.1591 142.338 98.1591ZM150.487 98.1591C149.751 98.1591 149.116 97.9967 148.582 97.6719C148.052 97.3438 147.643 96.8864 147.354 96.2997C147.069 95.7098 146.927 95.0237 146.927 94.2415C146.927 93.4593 147.069 92.7699 147.354 92.1733C147.643 91.5734 148.044 91.1061 148.558 90.7713C149.075 90.4332 149.678 90.2642 150.367 90.2642C150.765 90.2642 151.158 90.3305 151.545 90.4631C151.933 90.5956 152.286 90.8111 152.604 91.1094C152.923 91.4044 153.176 91.7955 153.365 92.2827C153.554 92.7699 153.648 93.3698 153.648 94.0824V94.5795H147.762V93.5653H152.455C152.455 93.1345 152.369 92.75 152.197 92.4119C152.028 92.0739 151.786 91.8071 151.471 91.6115C151.159 91.416 150.791 91.3182 150.367 91.3182C149.9 91.3182 149.496 91.4342 149.154 91.6662C148.816 91.8949 148.556 92.1932 148.374 92.5611C148.191 92.929 148.1 93.3234 148.1 93.7443V94.4205C148.1 94.9972 148.2 95.486 148.398 95.8871C148.601 96.2848 148.881 96.5881 149.239 96.7969C149.597 97.0024 150.013 97.1051 150.487 97.1051C150.795 97.1051 151.073 97.062 151.322 96.9759C151.574 96.8864 151.791 96.7538 151.973 96.5781C152.155 96.3991 152.296 96.1771 152.396 95.9119L153.529 96.2301C153.41 96.6146 153.209 96.9527 152.928 97.2443C152.646 97.5327 152.298 97.758 151.884 97.9205C151.469 98.0795 151.004 98.1591 150.487 98.1591ZM155.433 100.864V90.3636H156.567V91.5767H156.706C156.792 91.4441 156.911 91.2751 157.064 91.0696C157.22 90.8608 157.442 90.6752 157.73 90.5128C158.022 90.3471 158.416 90.2642 158.913 90.2642C159.556 90.2642 160.123 90.425 160.614 90.7464C161.104 91.0679 161.487 91.5237 161.762 92.1136C162.037 92.7036 162.175 93.3996 162.175 94.2017C162.175 95.0104 162.037 95.7114 161.762 96.3047C161.487 96.8946 161.106 97.352 160.619 97.6768C160.131 97.9983 159.57 98.1591 158.933 98.1591C158.443 98.1591 158.05 98.0779 157.755 97.9155C157.46 97.7498 157.233 97.5625 157.074 97.3537C156.915 97.1416 156.792 96.9659 156.706 96.8267H156.607V100.864H155.433ZM156.587 94.1818C156.587 94.7585 156.671 95.2673 156.84 95.7081C157.009 96.1456 157.256 96.4886 157.581 96.7372C157.906 96.9825 158.304 97.1051 158.774 97.1051C159.265 97.1051 159.674 96.9759 160.002 96.7173C160.334 96.4555 160.582 96.1042 160.748 95.6634C160.917 95.2192 161.001 94.7254 161.001 94.1818C161.001 93.6449 160.919 93.161 160.753 92.7301C160.59 92.2959 160.344 91.9529 160.012 91.701C159.684 91.4458 159.271 91.3182 158.774 91.3182C158.297 91.3182 157.896 91.4392 157.571 91.6811C157.246 91.9197 157.001 92.2545 156.835 92.6854C156.67 93.1129 156.587 93.6117 156.587 94.1818ZM168.061 98V87.8182H171.501C172.297 87.8182 172.95 87.9541 173.46 88.2259C173.971 88.4943 174.348 88.8639 174.594 89.3345C174.839 89.8052 174.962 90.3404 174.962 90.9403C174.962 91.5402 174.839 92.0722 174.594 92.5362C174.348 93.0002 173.972 93.3648 173.465 93.63C172.958 93.8918 172.31 94.0227 171.521 94.0227H168.737V92.9091H171.482C172.025 92.9091 172.463 92.8295 172.794 92.6705C173.129 92.5114 173.371 92.286 173.52 91.9943C173.672 91.6993 173.749 91.348 173.749 90.9403C173.749 90.5327 173.672 90.1764 173.52 89.8714C173.367 89.5665 173.124 89.3312 172.789 89.1655C172.454 88.9964 172.012 88.9119 171.462 88.9119H169.294V98H168.061ZM172.854 93.4261L175.359 98H173.928L171.462 93.4261H172.854ZM179.977 98.1591C179.241 98.1591 178.606 97.9967 178.073 97.6719C177.542 97.3438 177.133 96.8864 176.845 96.2997C176.56 95.7098 176.417 95.0237 176.417 94.2415C176.417 93.4593 176.56 92.7699 176.845 92.1733C177.133 91.5734 177.534 91.1061 178.048 90.7713C178.565 90.4332 179.168 90.2642 179.857 90.2642C180.255 90.2642 180.648 90.3305 181.036 90.4631C181.423 90.5956 181.776 90.8111 182.095 91.1094C182.413 91.4044 182.666 91.7955 182.855 92.2827C183.044 92.7699 183.139 93.3698 183.139 94.0824V94.5795H177.252V93.5653H181.945C181.945 93.1345 181.859 92.75 181.687 92.4119C181.518 92.0739 181.276 91.8071 180.961 91.6115C180.65 91.416 180.282 91.3182 179.857 91.3182C179.39 91.3182 178.986 91.4342 178.644 91.6662C178.306 91.8949 178.046 92.1932 177.864 92.5611C177.682 92.929 177.59 93.3234 177.59 93.7443V94.4205C177.59 94.9972 177.69 95.486 177.889 95.8871C178.091 96.2848 178.371 96.5881 178.729 96.7969C179.087 97.0024 179.503 97.1051 179.977 97.1051C180.285 97.1051 180.563 97.062 180.812 96.9759C181.064 96.8864 181.281 96.7538 181.463 96.5781C181.646 96.3991 181.786 96.1771 181.886 95.9119L183.019 96.2301C182.9 96.6146 182.7 96.9527 182.418 97.2443C182.136 97.5327 181.788 97.758 181.374 97.9205C180.959 98.0795 180.494 98.1591 179.977 98.1591ZM190.333 92.0739L189.279 92.3722C189.212 92.1965 189.115 92.0258 188.985 91.8601C188.859 91.6911 188.687 91.5518 188.468 91.4425C188.249 91.3331 187.969 91.2784 187.628 91.2784C187.161 91.2784 186.771 91.3861 186.46 91.6016C186.151 91.8137 185.997 92.0838 185.997 92.4119C185.997 92.7036 186.103 92.9339 186.316 93.103C186.528 93.272 186.859 93.4129 187.31 93.5256L188.443 93.804C189.126 93.9697 189.635 94.2232 189.97 94.5646C190.304 94.9027 190.472 95.3385 190.472 95.8722C190.472 96.3097 190.346 96.7008 190.094 97.0455C189.845 97.3902 189.497 97.6619 189.05 97.8608C188.602 98.0597 188.082 98.1591 187.489 98.1591C186.71 98.1591 186.065 97.9901 185.555 97.652C185.044 97.3139 184.721 96.8201 184.585 96.1705L185.699 95.892C185.805 96.303 186.006 96.6113 186.301 96.8168C186.599 97.0223 186.988 97.125 187.469 97.125C188.016 97.125 188.45 97.009 188.771 96.777C189.096 96.5417 189.259 96.2599 189.259 95.9318C189.259 95.6667 189.166 95.4446 188.98 95.2656C188.795 95.0833 188.51 94.9474 188.125 94.858L186.852 94.5597C186.153 94.3939 185.639 94.1371 185.311 93.7891C184.986 93.4377 184.824 92.9986 184.824 92.4716C184.824 92.0407 184.945 91.6596 185.187 91.3281C185.432 90.9967 185.765 90.7365 186.186 90.5476C186.61 90.3587 187.091 90.2642 187.628 90.2642C188.384 90.2642 188.977 90.4299 189.408 90.7614C189.842 91.0928 190.15 91.5303 190.333 92.0739ZM195.44 98.1591C194.704 98.1591 194.069 97.9967 193.536 97.6719C193.005 97.3438 192.596 96.8864 192.308 96.2997C192.022 95.7098 191.88 95.0237 191.88 94.2415C191.88 93.4593 192.022 92.7699 192.308 92.1733C192.596 91.5734 192.997 91.1061 193.511 90.7713C194.028 90.4332 194.631 90.2642 195.32 90.2642C195.718 90.2642 196.111 90.3305 196.499 90.4631C196.886 90.5956 197.239 90.8111 197.558 91.1094C197.876 91.4044 198.129 91.7955 198.318 92.2827C198.507 92.7699 198.602 93.3698 198.602 94.0824V94.5795H192.715V93.5653H197.408C197.408 93.1345 197.322 92.75 197.15 92.4119C196.981 92.0739 196.739 91.8071 196.424 91.6115C196.112 91.416 195.745 91.3182 195.32 91.3182C194.853 91.3182 194.449 91.4342 194.107 91.6662C193.769 91.8949 193.509 92.1932 193.327 92.5611C193.144 92.929 193.053 93.3234 193.053 93.7443V94.4205C193.053 94.9972 193.153 95.486 193.352 95.8871C193.554 96.2848 193.834 96.5881 194.192 96.7969C194.55 97.0024 194.966 97.1051 195.44 97.1051C195.748 97.1051 196.026 97.062 196.275 96.9759C196.527 96.8864 196.744 96.7538 196.926 96.5781C197.108 96.3991 197.249 96.1771 197.349 95.9119L198.482 96.2301C198.363 96.6146 198.162 96.9527 197.881 97.2443C197.599 97.5327 197.251 97.758 196.837 97.9205C196.422 98.0795 195.957 98.1591 195.44 98.1591ZM202.634 98.179C202.15 98.179 201.71 98.0878 201.316 97.9055C200.922 97.7199 200.608 97.4531 200.376 97.1051C200.144 96.7538 200.028 96.3295 200.028 95.8324C200.028 95.3949 200.115 95.0402 200.287 94.7685C200.459 94.4934 200.69 94.2779 200.978 94.1222C201.266 93.9664 201.585 93.8504 201.933 93.7741C202.284 93.6946 202.637 93.6316 202.991 93.5852C203.455 93.5256 203.832 93.4808 204.12 93.451C204.412 93.4179 204.624 93.3632 204.756 93.2869C204.892 93.2107 204.96 93.0781 204.96 92.8892V92.8494C204.96 92.3589 204.826 91.9777 204.558 91.706C204.292 91.4342 203.89 91.2983 203.349 91.2983C202.789 91.2983 202.35 91.4209 202.032 91.6662C201.714 91.9115 201.49 92.1733 201.361 92.4517L200.247 92.054C200.446 91.59 200.711 91.2287 201.043 90.9702C201.377 90.7083 201.742 90.526 202.136 90.4233C202.534 90.3172 202.925 90.2642 203.31 90.2642C203.555 90.2642 203.837 90.294 204.155 90.3537C204.476 90.41 204.786 90.5277 205.085 90.7067C205.386 90.8857 205.636 91.1558 205.835 91.517C206.034 91.8783 206.134 92.3622 206.134 92.9688V98H204.96V96.9659H204.901C204.821 97.1316 204.688 97.3089 204.503 97.4979C204.317 97.6868 204.07 97.8475 203.762 97.9801C203.454 98.1127 203.078 98.179 202.634 98.179ZM202.812 97.125C203.277 97.125 203.668 97.0339 203.986 96.8516C204.307 96.6693 204.549 96.4339 204.712 96.1456C204.877 95.8572 204.96 95.554 204.96 95.2358V94.1619C204.911 94.2216 204.801 94.2763 204.632 94.326C204.466 94.3724 204.274 94.4138 204.055 94.4503C203.84 94.4834 203.629 94.5133 203.424 94.5398C203.222 94.563 203.058 94.5829 202.932 94.5994C202.627 94.6392 202.342 94.7038 202.077 94.7933C201.815 94.8795 201.603 95.0104 201.44 95.1861C201.281 95.3584 201.202 95.5937 201.202 95.892C201.202 96.2997 201.353 96.608 201.654 96.8168C201.959 97.0223 202.345 97.125 202.812 97.125ZM208.275 98V90.3636H209.409V91.517H209.488C209.627 91.1392 209.879 90.8326 210.244 90.5973C210.608 90.362 211.019 90.2443 211.477 90.2443C211.563 90.2443 211.671 90.246 211.8 90.2493C211.929 90.2526 212.027 90.2576 212.093 90.2642V91.4574C212.053 91.4474 211.962 91.4325 211.82 91.4126C211.681 91.3894 211.533 91.3778 211.377 91.3778C211.006 91.3778 210.675 91.4557 210.383 91.6115C210.095 91.764 209.866 91.9761 209.697 92.2479C209.531 92.5163 209.448 92.8229 209.448 93.1676V98H208.275ZM216.354 98.1591C215.638 98.1591 215.021 97.9901 214.504 97.652C213.987 97.3139 213.59 96.8482 213.311 96.255C213.033 95.6617 212.894 94.9839 212.894 94.2216C212.894 93.446 213.036 92.7616 213.321 92.1683C213.61 91.5717 214.011 91.1061 214.524 90.7713C215.041 90.4332 215.645 90.2642 216.334 90.2642C216.871 90.2642 217.355 90.3636 217.786 90.5625C218.217 90.7614 218.57 91.0398 218.845 91.3977C219.12 91.7557 219.29 92.1733 219.357 92.6506H218.183C218.094 92.3026 217.895 91.9943 217.587 91.7259C217.282 91.4541 216.871 91.3182 216.354 91.3182C215.896 91.3182 215.495 91.4375 215.151 91.6761C214.809 91.9115 214.543 92.2446 214.35 92.6754C214.161 93.103 214.067 93.6051 214.067 94.1818C214.067 94.7718 214.16 95.2855 214.345 95.723C214.534 96.1605 214.799 96.5002 215.141 96.7422C215.485 96.9841 215.89 97.1051 216.354 97.1051C216.659 97.1051 216.936 97.0521 217.184 96.946C217.433 96.84 217.643 96.6875 217.816 96.4886C217.988 96.2898 218.11 96.0511 218.183 95.7727H219.357C219.29 96.2235 219.126 96.6295 218.865 96.9908C218.606 97.3487 218.263 97.6338 217.835 97.8459C217.411 98.0547 216.917 98.1591 216.354 98.1591ZM222.245 93.4062V98H221.072V87.8182H222.245V91.5568H222.345C222.524 91.1624 222.792 90.8492 223.15 90.6172C223.511 90.3819 223.992 90.2642 224.592 90.2642C225.112 90.2642 225.568 90.3686 225.959 90.5774C226.35 90.7829 226.653 91.0994 226.869 91.527C227.088 91.9512 227.197 92.4915 227.197 93.1477V98H226.024V93.2273C226.024 92.6207 225.866 92.1518 225.551 91.8203C225.24 91.4856 224.807 91.3182 224.254 91.3182C223.869 91.3182 223.525 91.3994 223.22 91.5618C222.918 91.7242 222.679 91.9612 222.504 92.2727C222.331 92.5843 222.245 92.9621 222.245 93.4062Z" fill="#3D414F"/>
<rect x="449.5" y="75.5" width="35" height="35" rx="7.5" fill="url(#paint0_linear_33172_609)"/>
<rect x="449.5" y="75.5" width="35" height="35" rx="7.5" stroke="#E7000B"/>
<path d="M473.25 92.7915C472.988 92.7915 472.755 92.9543 472.664 93.1996L472.572 93.4485C472.508 93.6212 472.447 93.7689 472.415 93.8366C472.348 93.8682 472.205 93.9243 472.032 93.9883L471.783 94.0803C471.538 94.1711 471.375 94.405 471.375 94.6665C471.375 94.928 471.538 95.1619 471.783 95.2527L472.032 95.3448C472.205 95.4087 472.348 95.4648 472.415 95.4964C472.447 95.5641 472.508 95.7118 472.572 95.8845L472.664 96.1334C472.755 96.3787 472.988 96.5415 473.25 96.5415C473.511 96.5415 473.745 96.3787 473.836 96.1334L473.928 95.8845C473.992 95.7118 474.053 95.5641 474.085 95.4964C474.152 95.4648 474.295 95.4087 474.468 95.3448L474.717 95.2527C474.962 95.1619 475.125 94.928 475.125 94.6665C475.125 94.405 474.962 94.1711 474.717 94.0803L474.468 93.9883C474.295 93.9243 474.152 93.8682 474.085 93.8366C474.053 93.7689 473.992 93.6212 473.928 93.4485L473.836 93.1996C473.745 92.9543 473.511 92.7915 473.25 92.7915Z" fill="white"/>
<path d="M469.071 88.7831C469.496 88.5723 469.996 88.5723 470.421 88.7831C470.648 88.8957 470.891 89.1396 471.083 89.3324C471.276 89.5244 471.52 89.7673 471.632 89.9945C471.843 90.4198 471.843 90.9192 471.632 91.3444C471.52 91.5717 471.325 91.7653 471.133 91.9572L469.549 93.5404L466.875 90.8662L468.458 89.2829C468.65 89.0901 468.844 88.8957 469.071 88.7831Z" fill="white"/>
<path d="M465.992 91.75L468.667 94.4242L462.207 100.884C462.015 101.076 461.822 101.271 461.594 101.384C461.169 101.594 460.67 101.594 460.245 101.384C460.017 101.271 459.774 101.027 459.582 100.834C459.39 100.642 459.146 100.399 459.033 100.172C458.822 99.7467 458.822 99.2474 459.033 98.8222C459.146 98.5949 459.34 98.4013 459.533 98.2094L465.992 91.75Z" fill="white"/>
<path d="M465.75 84.4585C465.488 84.4585 465.255 84.6213 465.164 84.8666L465.072 85.1155C465.008 85.2882 464.947 85.4359 464.915 85.5036C464.848 85.5352 464.705 85.5913 464.532 85.6552L464.283 85.7473C464.038 85.8381 463.875 86.072 463.875 86.3335C463.875 86.595 464.038 86.8289 464.283 86.9197L464.532 87.0118C464.705 87.0756 464.848 87.1318 464.915 87.1634C464.947 87.2311 465.008 87.3788 465.072 87.5515L465.164 87.8004C465.255 88.0457 465.488 88.2085 465.75 88.2085C466.011 88.2085 466.245 88.0457 466.336 87.8004L466.428 87.5515C466.492 87.3788 466.553 87.2311 466.585 87.1634C466.652 87.1318 466.795 87.0756 466.968 87.0118L467.217 86.9197C467.462 86.8289 467.625 86.595 467.625 86.3335C467.625 86.072 467.462 85.8381 467.217 85.7473L466.968 85.6552C466.795 85.5913 466.652 85.5352 466.585 85.5036C466.553 85.4359 466.492 85.2882 466.428 85.1155L466.336 84.8666C466.245 84.6213 466.011 84.4585 465.75 84.4585Z" fill="white"/>
<path d="M473.25 84.4585C472.988 84.4585 472.755 84.6213 472.664 84.8666L472.572 85.1155C472.508 85.2882 472.447 85.4359 472.415 85.5036C472.348 85.5352 472.205 85.5913 472.032 85.6552L471.783 85.7473C471.538 85.8381 471.375 86.072 471.375 86.3335C471.375 86.595 471.538 86.8289 471.783 86.9197L472.032 87.0118C472.205 87.0756 472.348 87.1318 472.415 87.1634C472.447 87.2311 472.508 87.3788 472.572 87.5515L472.664 87.8004C472.755 88.0457 472.988 88.2085 473.25 88.2085C473.511 88.2085 473.745 88.0457 473.836 87.8004L473.928 87.5515C473.992 87.3788 474.053 87.2311 474.085 87.1634C474.152 87.1318 474.295 87.0756 474.468 87.0118L474.717 86.9197C474.962 86.8289 475.125 86.595 475.125 86.3335C475.125 86.072 474.962 85.8381 474.717 85.7473L474.468 85.6552C474.295 85.5913 474.152 85.5352 474.085 85.5036C474.053 85.4359 473.992 85.2882 473.928 85.1155L473.836 84.8666C473.745 84.6213 473.511 84.4585 473.25 84.4585Z" fill="white"/>
<defs>
<linearGradient id="paint0_linear_33172_609" x1="449" y1="75" x2="491.003" y2="84.5246" gradientUnits="userSpaceOnUse">
<stop stop-color="#E7000B"/>
<stop offset="1" stop-color="#E7000B"/>
</linearGradient>
</defs>
</svg>
