<svg width="46" height="46" viewBox="0 0 46 46" fill="none" xmlns="http://www.w3.org/2000/svg">
<path opacity="0.4" d="M23.2942 2.60034C25.2949 2.60034 26.8708 4.11158 27.8768 6.15073L31.2366 12.9263C31.3384 13.136 31.58 13.4312 31.9431 13.7014C32.3057 13.9712 32.6609 14.12 32.8945 14.1593L38.9762 15.1782C41.1731 15.5474 43.0144 16.6243 43.6121 18.4995C44.2093 20.3732 43.3343 22.3203 41.7544 23.903L41.7529 23.9047L37.0283 28.6688C36.841 28.8575 36.6313 29.2132 36.4997 29.6765C36.3691 30.1368 36.3575 30.5562 36.4168 30.8269L36.4175 30.8307L37.7692 36.7243C38.33 39.177 38.1441 41.6094 36.4143 42.8811C34.6784 44.157 32.3065 43.5914 30.1515 42.3079L24.4506 38.9049C24.2111 38.7619 23.8001 38.646 23.3037 38.646C22.811 38.646 22.3914 38.7604 22.1363 38.9088L22.1326 38.9109L16.443 42.3072C14.2906 43.5952 11.9215 44.1507 10.1856 42.8735C8.45693 41.6016 8.26178 39.1738 8.8242 36.7229L10.1757 30.8307L10.1765 30.8269C10.2357 30.5562 10.2241 30.1368 10.0935 29.6765C9.96191 29.2132 9.75216 28.8575 9.5649 28.6688L4.83677 23.901C3.26716 22.3184 2.39496 20.373 2.98745 18.5021C3.58166 16.6257 5.41942 15.5475 7.61767 15.1781L13.6943 14.1601L13.6963 14.1597C13.919 14.1211 14.269 13.9739 14.6308 13.7033C14.9934 13.4323 15.2355 13.1364 15.3375 12.9263L15.3427 12.9158L18.6981 6.14894L18.6995 6.14627C19.7151 4.10882 21.2958 2.60034 23.2942 2.60034Z" fill="#E7000B"/>
<path d="M19.0924 5.97358C20.1332 4.03535 21.753 2.60034 23.8008 2.60034V36.8905C23.3002 36.892 22.8739 37.0003 22.6142 37.1405L22.6105 37.1425L16.7802 40.3734C14.5746 41.5987 12.147 42.1271 10.3681 40.9121C8.59674 39.7022 8.39676 37.3926 8.97309 35.0611L10.358 29.4559L10.3588 29.4523C10.4195 29.1947 10.4076 28.7958 10.2737 28.3579C10.1389 27.9171 9.92398 27.5788 9.7321 27.3992L4.8871 22.8637C3.27869 21.3581 2.38493 19.5074 2.99206 17.7276C3.60096 15.9427 5.48415 14.917 7.73674 14.5655L13.9636 13.5971L13.9656 13.5968C14.1939 13.56 14.5525 13.42 14.9233 13.1626C15.2947 12.9048 15.5428 12.6233 15.6474 12.4234L15.6527 12.4134L19.0911 5.97612L19.0924 5.97358Z" fill="#E7000B"/>
</svg>
