<svg width="45" height="46" viewBox="0 0 45 46" fill="none" xmlns="http://www.w3.org/2000/svg">
<path fill-rule="evenodd" clip-rule="evenodd" d="M20.5078 6.36231C21.7537 4.01302 25.2462 4.01302 26.4921 6.36231L30.6899 14.2785C30.7595 14.4099 30.8904 14.5013 31.0418 14.5245L40.1665 15.9211C42.8729 16.3353 43.9514 19.5224 42.016 21.3874L35.4838 27.6819C35.3756 27.7862 35.3257 27.9337 35.3497 28.0792L36.7895 36.8641C37.2162 39.4678 34.3913 41.4384 31.9478 40.242L23.7178 36.2128C23.581 36.1458 23.4189 36.1458 23.2822 36.2128L15.0523 40.242C12.6086 41.4384 9.78387 39.4678 10.2106 36.8641L11.6503 28.0792C11.6742 27.9337 11.6243 27.7862 11.5161 27.6819L4.9839 21.3874C3.04865 19.5224 4.1271 16.3353 6.83351 15.9211L15.9581 14.5245C16.1096 14.5013 16.2404 14.4099 16.3101 14.2785L20.5078 6.36231Z" fill="#E7000B"/>
</svg>
