<svg width="509" height="50" viewBox="0 0 509 50" fill="none" xmlns="http://www.w3.org/2000/svg">
<circle opacity="0.5" cx="12" cy="12" r="12" fill="#E7000B"/>
<circle opacity="0.5" cx="38" cy="12" r="12" fill="#EDEDF1"/>
<circle opacity="0.5" cx="64" cy="12" r="12" fill="#E7000B"/>
<circle cx="90" cy="12" r="12" fill="#E7000B"/>
<circle cx="116" cy="12" r="12" fill="#EDEDF1"/>
<circle opacity="0.5" cx="142" cy="12" r="12" fill="#E7000B"/>
<circle cx="168" cy="12" r="12" fill="#E7000B"/>
<circle opacity="0.5" cx="194" cy="12" r="12" fill="#EDEDF1"/>
<circle cx="220" cy="12" r="12" fill="#E7000B"/>
<circle opacity="0.5" cx="246" cy="12" r="12" fill="#E7000B"/>
<circle opacity="0.5" cx="272" cy="12" r="12" fill="#E7000B"/>
<circle cx="298" cy="12" r="12" fill="#E7000B"/>
<circle opacity="0.5" cx="324" cy="12" r="12" fill="#EDEDF1"/>
<circle cx="350" cy="12" r="12" fill="#E7000B"/>
<circle opacity="0.2" cx="376" cy="12" r="12" fill="#E7000B"/>
<circle cx="402" cy="12" r="12" fill="#E7000B"/>
<circle cx="428" cy="12" r="12" fill="#EDEDF1"/>
<circle opacity="0.5" cx="454" cy="12" r="12" fill="#EDEDF1"/>
<circle opacity="0.2" cx="480" cy="12" r="12" fill="#E7000B"/>
<circle cx="12" cy="38" r="12" fill="#E7000B"/>
<circle cx="38" cy="38" r="12" fill="#EDEDF1"/>
<circle cx="64" cy="38" r="12" fill="#EDEDF1"/>
<circle opacity="0.5" cx="90" cy="38" r="12" fill="#E7000B"/>
<circle opacity="0.5" cx="116" cy="38" r="12" fill="#EDEDF1"/>
<circle cx="142" cy="38" r="12" fill="#E7000B"/>
<circle cx="168" cy="38" r="12" fill="#EDEDF1"/>
<circle cx="194" cy="38" r="12" fill="#E7000B"/>
<circle cx="220" cy="38" r="12" fill="#EDEDF1"/>
<circle opacity="0.5" cx="246" cy="38" r="12" fill="#E7000B"/>
<circle cx="272" cy="38" r="12" fill="#E7000B"/>
<circle opacity="0.5" cx="298" cy="38" r="12" fill="#EDEDF1"/>
<circle cx="324" cy="38" r="12" fill="#E7000B"/>
<circle opacity="0.5" cx="350" cy="38" r="12" fill="#E7000B"/>
<circle cx="376" cy="38" r="12" fill="#E7000B"/>
<circle opacity="0.5" cx="402" cy="38" r="12" fill="#EDEDF1"/>
<circle cx="428" cy="38" r="12" fill="#E7000B"/>
<circle opacity="0.2" cx="454" cy="38" r="12" fill="#E7000B"/>
<circle opacity="0.2" cx="480" cy="38" r="12" fill="#E7000B"/>
</svg>
