<svg width="20" height="20" viewBox="0 0 20 20" fill="none" xmlns="http://www.w3.org/2000/svg">
<path opacity="0.4" d="M11.4371 2.86999L12.9036 5.82724C13.1036 6.23889 13.6368 6.63375 14.0868 6.70936L16.7448 7.15463C18.4446 7.44028 18.8446 8.68367 17.6197 9.91025L15.5533 11.9938C15.2033 12.3466 15.0117 13.0271 15.12 13.5144L15.7116 16.0936C16.1782 18.1351 15.1033 18.9248 13.3119 17.8578L10.8205 16.3708C10.3706 16.102 9.62898 16.102 9.17065 16.3708L6.67929 17.8578C4.89614 18.9248 3.81294 18.1267 4.27955 16.0936L4.87115 13.5144C4.97947 13.0271 4.78783 12.3466 4.43786 11.9938L2.37143 9.91025C1.1549 8.68367 1.54652 7.44028 3.24633 7.15463L5.90437 6.70936C6.34599 6.63375 6.87926 6.23889 7.07924 5.82724L8.54573 2.86999C9.34564 1.26534 10.6455 1.26534 11.4371 2.86999Z" fill="#287AFF"/>
<path d="M11.4371 2.86999L12.9036 5.82724C13.1036 6.23889 13.6368 6.63375 14.0868 6.70936L16.7448 7.15463C18.4446 7.44028 18.8446 8.68367 17.6197 9.91025L15.5533 11.9938C15.2033 12.3466 15.0117 13.0271 15.12 13.5144L15.7116 16.0936C16.1782 18.1351 15.1033 18.9248 13.3119 17.8578L10.8205 16.3708C10.3706 16.102 9.62898 16.102 9.17065 16.3708L6.67929 17.8578C4.89614 18.9248 3.81294 18.1267 4.27955 16.0936L4.87115 13.5144C4.97947 13.0271 4.78783 12.3466 4.43786 11.9938L2.37143 9.91025C1.1549 8.68367 1.54652 7.44028 3.24633 7.15463L5.90437 6.70936C6.34599 6.63375 6.87926 6.23889 7.07924 5.82724L8.54573 2.86999C9.34565 1.26534 10.6455 1.26534 11.4371 2.86999Z" stroke="#287AFF" stroke-width="1.25" stroke-linecap="round" stroke-linejoin="round"/>
</svg>
