<?xml version="1.0" encoding="utf-8"?>
<!-- Generator: Adobe Illustrator 16.0.0, SVG Export Plug-In . SVG Version: 6.00 Build 0)  -->
<!DOCTYPE svg PUBLIC "-//W3C//DTD SVG 1.1//EN" "http://www.w3.org/Graphics/SVG/1.1/DTD/svg11.dtd">
<svg version="1.1" id="圖層_1" xmlns="http://www.w3.org/2000/svg" xmlns:xlink="http://www.w3.org/1999/xlink" x="0px" y="0px"
	 width="40px" height="40px" viewBox="0 0 40 40" enable-background="new 0 0 40 40" xml:space="preserve">
<path fill="#252E3D" d="M20,0c7.477,0,11.215,0,14,1.607C35.824,2.661,37.34,4.176,38.393,6C40,8.785,40,12.523,40,20
	s0,11.215-1.607,14c-1.053,1.824-2.568,3.34-4.393,4.393C31.215,40,27.477,40,20,40S8.785,40,6,38.393
	C4.176,37.34,2.661,35.824,1.607,34C0,31.215,0,27.477,0,20S0,8.785,1.607,6C2.661,4.176,4.176,2.661,6,1.607C8.785,0,12.523,0,20,0
	z M22,4C13.164,4,6,11.164,6,20c0,8.836,7.164,16,16,16c8.836,0,16-7.164,16-16C38,11.164,30.836,4,22,4z"/>
<path fill="#252E3D" d="M36,20c0,5.523-4.477,10-10,10c-5.523,0-10-4.477-10-10c0-5.523,4.477-10,10-10C31.523,10,36,14.477,36,20z"
	/>
</svg>
