<?xml version="1.0" encoding="utf-8"?>
<!-- Generator: Adobe Illustrator 16.0.0, SVG Export Plug-In . SVG Version: 6.00 Build 0)  -->
<!DOCTYPE svg PUBLIC "-//W3C//DTD SVG 1.1//EN" "http://www.w3.org/Graphics/SVG/1.1/DTD/svg11.dtd">
<svg version="1.1" id="圖層_1" xmlns="http://www.w3.org/2000/svg" xmlns:xlink="http://www.w3.org/1999/xlink" x="0px" y="0px"
	 width="55px" height="41px" viewBox="0 0 55 41" enable-background="new 0 0 55 41" xml:space="preserve">
<path fill="#252E3D" d="M35.5,0.5c10.493,0,19,8.507,19,19v21c-4.418,0-8-3.582-8-8v-13c0-6.075-4.925-11-11-11h-5.201
	c-2.652,0-5.196,1.053-7.071,2.929L9.672,24.985c-0.75,0.75-1.172,1.768-1.172,2.828V28.5c0,2.209,1.791,4,4,4h18
	c0,4.28-3.361,7.775-7.588,7.989L22.5,40.5h-10c-6.627,0-12-5.373-12-12v-0.687c0-3.183,1.264-6.235,3.515-8.485L17.571,5.772
	C20.947,2.397,25.525,0.5,30.299,0.5H35.5z"/>
<path fill="#252E3D" d="M37.5,12.5c2.762,0,5,2.239,5,5v23c-4.418,0-8-3.582-8-8v-12h-3.344l-6.536,6.535
	c-0.938,0.938-2.209,1.465-3.536,1.465h-8.107c-0.419,0-0.628-0.506-0.333-0.803l13.734-13.732c0.938-0.938,2.209-1.465,3.535-1.465
	H37.5z"/>
</svg>
