<?xml version="1.0" encoding="utf-8"?>
<!-- Generator: Adobe Illustrator 16.0.0, SVG Export Plug-In . SVG Version: 6.00 Build 0)  -->
<!DOCTYPE svg PUBLIC "-//W3C//DTD SVG 1.1//EN" "http://www.w3.org/Graphics/SVG/1.1/DTD/svg11.dtd">
<svg version="1.1" id="圖層_1" xmlns="http://www.w3.org/2000/svg" xmlns:xlink="http://www.w3.org/1999/xlink" x="0px" y="0px"
	 width="56px" height="40px" viewBox="0 0 56 40" enable-background="new 0 0 56 40" xml:space="preserve">
<path fill="#252E3D" d="M23.333,0c0.386,0,0.77,0.009,1.151,0.028c0.007,0,0.014-0.005,0.014-0.013l0,0
	c0-0.007,0.006-0.014,0.013-0.014h21.33c0.455,0,0.824,0.373,0.824,0.832c0,0.221-0.086,0.432-0.24,0.588l-5.594,5.637h11.912
	c0.797,0,1.525,0.471,1.801,1.219C55.486,10.829,56,13.589,56,16.471C56,29.465,45.553,40,32.666,40c-0.385,0-0.77-0.01-1.15-0.029
	c-0.008,0-0.015,0.006-0.015,0.014l0,0c0,0.008-0.006,0.015-0.014,0.015H10.158c-0.456-0.001-0.825-0.372-0.825-0.832
	c0-0.221,0.087-0.433,0.241-0.589l5.591-5.637H3.256c-0.797,0-1.526-0.471-1.801-1.219C0.514,29.171,0,26.411,0,23.529
	C0,10.535,10.447,0,23.333,0z M31.318,16.656c-1.926-2.273-4.788-3.714-7.985-3.714c-5.799,0-10.5,4.74-10.5,10.588
	c0,1.238,0.212,2.426,0.599,3.529h7.566l3.683-3.715c1.926,2.273,4.788,3.715,7.984,3.715c5.8,0,10.5-4.74,10.5-10.588
	c0-1.238-0.211-2.425-0.599-3.529h-7.566L31.318,16.656z"/>
</svg>
