<?xml version="1.0" encoding="utf-8"?>
<!-- Generator: Adobe Illustrator 16.0.0, SVG Export Plug-In . SVG Version: 6.00 Build 0)  -->
<!DOCTYPE svg PUBLIC "-//W3C//DTD SVG 1.1//EN" "http://www.w3.org/Graphics/SVG/1.1/DTD/svg11.dtd">
<svg version="1.1" id="圖層_1" xmlns="http://www.w3.org/2000/svg" xmlns:xlink="http://www.w3.org/1999/xlink" x="0px" y="0px"
	 width="40px" height="40px" viewBox="0 0 40 40" enable-background="new 0 0 40 40" xml:space="preserve">
<path fill="#252E3D" d="M30,28V12c0-1.104-0.896-2-2-2h-0.101c-0.53,0-1.039,0.211-1.414,0.586L10.586,26.485
	C10.211,26.86,10,27.369,10,27.899V40H0V27.899c0-3.183,1.264-6.235,3.515-8.485L19.414,3.515C21.664,1.264,24.717,0,27.899,0H28
	c6.627,0,12,5.373,12,12v16c0,6.627-5.373,12-12,12H14V30h14C29.104,30,30,29.104,30,28z M0,0h17L7,10H0V0z"/>
</svg>
