<?xml version="1.0" encoding="utf-8"?>
<!-- Generator: Adobe Illustrator 16.0.0, SVG Export Plug-In . SVG Version: 6.00 Build 0)  -->
<!DOCTYPE svg PUBLIC "-//W3C//DTD SVG 1.1//EN" "http://www.w3.org/Graphics/SVG/1.1/DTD/svg11.dtd">
<svg version="1.1" id="圖層_1" xmlns="http://www.w3.org/2000/svg" xmlns:xlink="http://www.w3.org/1999/xlink" x="0px" y="0px"
	 width="43px" height="40px" viewBox="0 0 43 40" enable-background="new 0 0 43 40" xml:space="preserve">
<path fill="#252E3D" d="M3.304,17.132C3.71,15.302,5.334,14,7.208,14H12L8,32H4.986c-2.559,0-4.459-2.369-3.905-4.867L3.304,17.132z
	"/>
<path fill="#252E3D" d="M39.285,8H21.286l-0.608,2.838C20.282,12.683,18.653,14,16.767,14H12l2.322-10.838
	C14.717,1.318,16.347,0,18.233,0h17.818c2.547,0,4.445,2.348,3.912,4.838L39.285,8z"/>
<path fill="#252E3D" d="M30.963,36.838C30.567,38.682,28.938,40,27.051,40H11.233c-2.546,0-4.445-2.348-3.911-4.838L7.999,32h24
	L30.963,36.838z"/>
<path fill="#252E3D" d="M38.627,17c2.602,0,4.512,2.446,3.881,4.971l-1.75,7C40.313,30.751,38.713,32,36.877,32H32l1.75-7H14
	l1.037-4.838C15.432,18.318,17.062,17,18.948,17H38.627z"/>
</svg>
